<svg width="34" height="34" viewBox="0 0 34 34" fill="none" xmlns="http://www.w3.org/2000/svg">
<path d="M11.5689 18.2695C11.846 18.2695 12.0706 18.0465 12.0706 17.7714C12.0706 17.4963 11.846 17.2734 11.5689 17.2734H9.30388V15.7798C9.30388 15.5046 9.0793 15.2817 8.80213 15.2817C8.52496 15.2817 8.30037 15.5046 8.30037 15.7798V17.2734H6.53707V11.5217C6.53707 11.1552 6.25027 10.8682 5.88412 10.8682H0.739052C0.324669 10.8682 0 11.2243 0 11.6789V33.1894C0 33.644 0.324669 34.0001 0.739052 34.0001H11.3316C11.7391 34.0001 12.0706 33.6364 12.0706 33.1894V28.0254C12.0706 27.7503 11.846 27.5274 11.5689 27.5274C11.2917 27.5274 11.0671 27.7503 11.0671 28.0254V33.004H1.00358V11.8643H5.53363V13.1176H3.83876C3.56159 13.1176 3.33701 13.3405 3.33701 13.6157C3.33701 13.8908 3.56159 14.1137 3.83876 14.1137H5.53356V15.9222H4.01291C3.73574 15.9222 3.51115 16.1451 3.51115 16.4202C3.51115 16.6954 3.73574 16.9183 4.01291 16.9183H5.53356V21.319C5.53356 21.5941 5.75815 21.817 6.03532 21.817H11.0671V25.7097C11.0671 25.9848 11.2917 26.2078 11.5689 26.2078C11.846 26.2078 12.0706 25.9848 12.0706 25.7097V21.4743C12.0706 21.0707 11.7208 20.8209 11.3967 20.8209H9.30388V18.2695H11.5689ZM8.30037 20.8209H6.53707V18.2695H8.30031V20.8209H8.30037Z" fill="#F85A3E"/>
<path d="M28.6788 23.0353V20.5759V16.0699C28.6788 16.0697 28.6788 16.0694 28.6788 16.0692V14.6331V9.10381C28.6788 9.10361 28.6788 9.10335 28.6788 9.10315V8.69037V6.11839H29.6561C30.1121 6.11839 30.4831 5.75044 30.4831 5.29814V5.25232H33.0829C33.3052 5.25232 33.5091 5.18087 33.6679 5.06227C33.6967 5.04315 33.7239 5.02083 33.7491 4.99513C33.7548 4.98936 33.7597 4.98311 33.765 4.97714C33.9105 4.83124 33.9999 4.6392 33.9999 4.42836V1.69004C33.9999 1.23562 33.5886 0.866002 33.0829 0.866002H30.4831V0.820248C30.4831 0.367956 30.1122 0 29.6562 0H23.275C22.819 0 22.4479 0.367956 22.4479 0.820248V0.866002H21.4993H15.9168C15.9162 0.866002 15.9157 0.866002 15.9151 0.866002H15.4988H8.31597C7.80933 0.866002 7.39716 1.23562 7.39716 1.69004V4.42829C7.39716 4.88264 7.80933 5.25226 8.31597 5.25226H10.7035V6.96919L8.8473 8.92744H8.38876C7.94962 8.92744 7.59237 9.28178 7.59237 9.71734V12.0463C7.59237 12.4829 7.94962 12.8381 8.38876 12.8381H14.0199C14.4601 12.8381 14.8183 12.4829 14.8183 12.0463V9.71734C14.8183 9.28178 14.4601 8.92744 14.0199 8.92744H13.5633L11.707 6.96919V5.25232H15.499H21.4994H22.448V5.29814C22.448 5.75044 22.819 6.11839 23.275 6.11839H24.2523V8.69024V14.633V20.5759V26.0206H22.6798C21.9843 26.0206 21.4185 26.5815 21.4185 27.271V30.5194H20.8679C19.8992 30.5194 19.1109 31.3005 19.1109 32.2606V33.1683C19.1109 33.6269 19.488 33.9999 19.9514 33.9999H33.1385C33.6009 33.9999 33.977 33.6269 33.977 33.1683V32.2606C33.977 31.3005 33.1897 30.5194 32.222 30.5194H31.6715V27.271C31.6715 26.5815 31.1047 26.0206 30.4081 26.0206H28.6788V23.0359C28.6788 23.0357 28.6788 23.0355 28.6788 23.0353ZM32.9964 1.86229V3.57557L31.2186 1.86223L32.9964 1.86229ZM30.4831 2.54176L32.2621 4.25623H30.4831V2.54176ZM8.40067 4.25597V1.86209H8.67884L11.1622 4.25603L8.40067 4.25597ZM13.8147 9.9236V11.8421H8.59582V9.9236H13.8147ZM12.1853 8.9275H10.2251L11.2052 7.89349L12.1853 8.9275ZM10.1192 1.86209H14.6792L12.3992 4.06L10.1192 1.86209ZM15.4989 4.25623L13.6361 4.25617L15.916 2.05832L18.196 4.25623H15.4989ZM17.1528 1.86209H21.4993H21.7128L19.4328 4.06L17.1528 1.86209ZM21.4993 4.25623H20.6697L22.4479 2.54203V4.25623H21.4993ZM30.4081 27.0167C30.5514 27.0167 30.6679 27.1308 30.6679 27.2711V30.5194H27.7465C27.4694 30.5194 27.2448 30.7424 27.2448 31.0175C27.2448 31.2926 27.4694 31.5155 27.7465 31.5155H32.2219C32.6363 31.5155 32.9734 31.8498 32.9734 32.2607V33.0038H20.1144V32.2607C20.1144 31.8498 20.4525 31.5155 20.8679 31.5155H25.3166C25.5937 31.5155 25.8183 31.2926 25.8183 31.0175C25.8183 30.7424 25.5937 30.5194 25.3166 30.5194H22.422V27.2711C22.422 27.1332 22.5401 27.0167 22.6798 27.0167H24.7539H28.1771H30.4081ZM27.4761 9.10341L25.2558 11.3627V8.69024V6.84408L27.4761 9.10341ZM25.9444 6.11839H27.6753V7.87968L25.9444 6.11839ZM27.6753 10.3271V14.633V14.8457L25.4549 12.5863L27.6753 10.3271ZM27.4761 16.0695L25.2558 18.3288V14.633V13.8101L27.4761 16.0695ZM27.6753 17.2933V20.5759V21.8119L25.4549 19.5525L27.6753 17.2933ZM27.4761 23.0357L25.2558 25.2949V20.7763L27.4761 23.0357ZM27.6753 24.2594V26.0206H25.9444L27.6753 24.2594ZM28.1771 5.1223H24.7606C24.7602 5.1223 24.7598 5.1223 24.7594 5.1223H24.7539H23.4514V0.996091H29.4795V5.1223H28.1771Z" fill="#F85A3E"/>
<path d="M9.86449 24.0491C9.86449 23.6386 9.52864 23.3047 9.11593 23.3047H2.95478C2.54093 23.3047 2.20428 23.6386 2.20428 24.0491V26.0806C2.20428 26.4911 2.54093 26.825 2.95478 26.825H9.11593C9.52871 26.825 9.86449 26.4911 9.86449 26.0806V24.0491ZM5.53353 25.8289H3.2078V24.3008H5.5336V25.8289H5.53353ZM8.86098 25.8289H6.53704V24.3008H8.86091V25.8289H8.86098Z" fill="#F85A3E"/>
<path d="M9.11587 28.3135H2.95478C2.54093 28.3135 2.20428 28.6474 2.20428 29.0579V31.0894C2.20428 31.4998 2.54093 31.8337 2.95478 31.8337H9.11593C9.52871 31.8337 9.86449 31.4998 9.86449 31.0894V29.0579C9.86449 28.6474 9.52864 28.3135 9.11587 28.3135ZM5.53353 30.8376H3.2078V29.3096H5.5336V30.8376H5.53353ZM8.86098 30.8376H6.53704V29.3096H8.86091V30.8376H8.86098Z" fill="#F85A3E"/>
</svg>
