<svg width="328" height="253" viewBox="0 0 328 253" fill="none" xmlns="http://www.w3.org/2000/svg">
<path d="M295.134 201.636H273.408V201.763H295.134V201.636Z" fill="#EBEBEB"/>
<path d="M217.28 203.012H211.58V203.139H217.28V203.012Z" fill="#EBEBEB"/>
<path d="M272.752 196.94H260.163V197.066H272.752V196.94Z" fill="#EBEBEB"/>
<path d="M62.7463 197.791H34.4137V197.916H62.7463V197.791Z" fill="#EBEBEB"/>
<path d="M72.7438 197.791H68.5913V197.916H72.7438V197.791Z" fill="#EBEBEB"/>
<path d="M147.698 199.926H86.2444V200.052H147.698V199.926Z" fill="#EBEBEB"/>
<path d="M328 193.495H0V193.62H328V193.495Z" fill="#EBEBEB"/>
<path d="M290.739 159.324H238.095V193.403H290.739V159.324Z" fill="#F0F0F0"/>
<path d="M280.63 168.771H287.367V163.575H280.63V168.771Z" fill="#FAFAFA"/>
<path d="M267.576 168.771H274.313V163.575H267.576V168.771Z" fill="#FAFAFA"/>
<path d="M254.521 168.771H261.259V163.575H254.521V168.771Z" fill="#FAFAFA"/>
<path d="M241.467 168.771H248.204V163.575H241.467V168.771Z" fill="#FAFAFA"/>
<path d="M280.63 178.218H287.367V173.022H280.63V178.218Z" fill="#FAFAFA"/>
<path d="M267.576 178.218H274.313V173.022H267.576V178.218Z" fill="#FAFAFA"/>
<path d="M254.521 178.218H261.259V173.022H254.521V178.218Z" fill="#FAFAFA"/>
<path d="M241.467 178.218H248.204V173.022H241.467V178.218Z" fill="#FAFAFA"/>
<path d="M280.63 187.666H287.367V182.469H280.63V187.666Z" fill="#FAFAFA"/>
<path d="M267.576 187.666H274.313V182.469H267.576V187.666Z" fill="#FAFAFA"/>
<path d="M254.521 187.666H261.259V182.469H254.521V187.666Z" fill="#FAFAFA"/>
<path d="M241.467 187.666H248.204V182.469H241.467V187.666Z" fill="#FAFAFA"/>
<path d="M250.9 100.148V87.3765H249.214V100.148H250.9Z" fill="#EBEBEB"/>
<path d="M289.047 100.148V87.3765H287.361V100.148H289.047Z" fill="#EBEBEB"/>
<path d="M269.977 100.148V87.3765H268.291V100.148H269.977Z" fill="#EBEBEB"/>
<path d="M290.739 98.8472H247.515V100.148H290.739V98.8472Z" fill="#F5F5F5"/>
<path d="M290.739 86.7236H247.515V88.0241H290.739V86.7236Z" fill="#F5F5F5"/>
<path d="M250.894 88.0288V75.2573H249.208V88.0288H250.894Z" fill="#EBEBEB"/>
<path d="M289.047 88.0239V75.2524H287.361V88.0239H289.047Z" fill="#EBEBEB"/>
<path d="M269.97 88.0288V75.2573H268.284V88.0288H269.97Z" fill="#EBEBEB"/>
<path d="M290.739 74.605H247.515V75.9054H290.739V74.605Z" fill="#F5F5F5"/>
<path d="M290.739 100.046H238.095V159.324H290.739V100.046Z" fill="#FAFAFA"/>
<path d="M287.374 102.647H267.576V117.291H287.374V102.647Z" fill="#F0F0F0"/>
<path d="M261.265 102.647H241.467V117.291H261.265V102.647Z" fill="#F0F0F0"/>
<path d="M287.374 121.542H267.576V136.185H287.374V121.542Z" fill="#F0F0F0"/>
<path d="M261.265 121.542H241.467V136.185H261.265V121.542Z" fill="#F0F0F0"/>
<path d="M287.374 140.436H267.576V155.079H287.374V140.436Z" fill="#F0F0F0"/>
<path d="M261.265 140.436H241.467V155.079H261.265V140.436Z" fill="#F0F0F0"/>
<path d="M178.767 126.606H128.917V193.095H178.767V126.606Z" fill="#EBEBEB"/>
<path d="M169.196 117.311V126.606H165.26H142.418H138.488V117.311H169.196Z" fill="#EBEBEB"/>
<path d="M169.189 133.989H175.572V129.065H169.189V133.989Z" fill="#FAFAFA"/>
<path d="M156.83 133.989H163.213V129.065H156.83V133.989Z" fill="#FAFAFA"/>
<path d="M144.464 133.989H150.847V129.065H144.464V133.989Z" fill="#FAFAFA"/>
<path d="M132.112 133.989H138.495V129.065H132.112V133.989Z" fill="#FAFAFA"/>
<path d="M169.189 142.93H175.572V138.007H169.189V142.93Z" fill="#FAFAFA"/>
<path d="M156.83 142.93H163.213V138.007H156.83V142.93Z" fill="#FAFAFA"/>
<path d="M144.464 142.93H150.847V138.007H144.464V142.93Z" fill="#FAFAFA"/>
<path d="M132.112 142.93H138.495V138.007H132.112V142.93Z" fill="#FAFAFA"/>
<path d="M169.189 151.881H175.572V146.957H169.189V151.881Z" fill="#FAFAFA"/>
<path d="M156.83 151.881H163.213V146.957H156.83V151.881Z" fill="#FAFAFA"/>
<path d="M144.464 151.881H150.847V146.957H144.464V151.881Z" fill="#FAFAFA"/>
<path d="M156.83 126.257H163.213V121.334H156.83V126.257Z" fill="#FAFAFA"/>
<path d="M144.464 126.257H150.847V121.334H144.464V126.257Z" fill="#FAFAFA"/>
<path d="M132.112 151.881H138.495V146.957H132.112V151.881Z" fill="#FAFAFA"/>
<path d="M169.189 160.822H175.572V155.899H169.189V160.822Z" fill="#FAFAFA"/>
<path d="M156.83 160.822H163.213V155.899H156.83V160.822Z" fill="#FAFAFA"/>
<path d="M144.464 160.822H150.847V155.899H144.464V160.822Z" fill="#FAFAFA"/>
<path d="M132.112 160.822H138.495V155.899H132.112V160.822Z" fill="#FAFAFA"/>
<path d="M169.189 169.763H175.572V164.84H169.189V169.763Z" fill="#FAFAFA"/>
<path d="M156.83 169.763H163.213V164.84H156.83V169.763Z" fill="#FAFAFA"/>
<path d="M144.464 169.763H150.847V164.84H144.464V169.763Z" fill="#FAFAFA"/>
<path d="M132.112 169.763H138.495V164.84H132.112V169.763Z" fill="#FAFAFA"/>
<path d="M169.189 178.714H175.572V173.791H169.189V178.714Z" fill="#FAFAFA"/>
<path d="M156.83 178.714H163.213V173.791H156.83V178.714Z" fill="#FAFAFA"/>
<path d="M144.464 178.714H150.847V173.791H144.464V178.714Z" fill="#FAFAFA"/>
<path d="M132.112 178.714H138.495V173.791H132.112V178.714Z" fill="#FAFAFA"/>
<path d="M169.189 187.655H175.572V182.732H169.189V187.655Z" fill="#FAFAFA"/>
<path d="M156.83 187.655H163.213V182.732H156.83V187.655Z" fill="#FAFAFA"/>
<path d="M144.464 187.655H150.847V182.732H144.464V187.655Z" fill="#FAFAFA"/>
<path d="M132.112 187.655H138.495V182.732H132.112V187.655Z" fill="#FAFAFA"/>
<path d="M179.796 125.65H127.887V126.652H179.796V125.65Z" fill="#F5F5F5"/>
<path d="M139.794 117.311V107.47H138.495V117.311H139.794Z" fill="#EBEBEB"/>
<path d="M169.196 117.311V107.47H167.897V117.311H169.196Z" fill="#EBEBEB"/>
<path d="M154.494 117.311V107.47H153.196V117.311H154.494Z" fill="#EBEBEB"/>
<path d="M170.495 116.31H137.183V117.311H170.495V116.31Z" fill="#F5F5F5"/>
<path d="M170.495 106.969H137.183V107.971H170.495V106.969Z" fill="#F5F5F5"/>
<path d="M139.794 107.971V98.1289H138.495V107.971H139.794Z" fill="#EBEBEB"/>
<path d="M169.196 107.971V98.1289H167.897V107.971H169.196Z" fill="#EBEBEB"/>
<path d="M154.494 107.971V98.1289H153.196V107.971H154.494Z" fill="#EBEBEB"/>
<path d="M170.495 97.6279H137.183V98.6298H170.495V97.6279Z" fill="#F5F5F5"/>
<path d="M139.794 98.6298V88.7881H138.495V98.6298H139.794Z" fill="#EBEBEB"/>
<path d="M169.196 98.6298V88.7881H167.897V98.6298H169.196Z" fill="#EBEBEB"/>
<path d="M154.494 98.6298V88.7881H153.196V98.6298H154.494Z" fill="#EBEBEB"/>
<path d="M170.495 88.2822H137.183V89.2841H170.495V88.2822Z" fill="#F5F5F5"/>
<path d="M139.794 89.289V79.4473H138.495V89.289H139.794Z" fill="#EBEBEB"/>
<path d="M169.189 89.289V79.4473H167.89V89.289H169.189Z" fill="#EBEBEB"/>
<path d="M154.494 89.289V79.4473H153.196V89.289H154.494Z" fill="#EBEBEB"/>
<path d="M170.495 78.9414H137.183V79.9433H170.495V78.9414Z" fill="#F5F5F5"/>
<path d="M246.374 114.058H187.118V193.095H246.374V114.058Z" fill="#EBEBEB"/>
<path d="M234.999 103.012V114.053H230.322H203.17H198.499V103.012H234.999Z" fill="#EBEBEB"/>
<path d="M234.992 122.832H242.582V116.982H234.992V122.832Z" fill="#FAFAFA"/>
<path d="M220.298 122.832H227.888V116.982H220.298V122.832Z" fill="#FAFAFA"/>
<path d="M205.61 122.832H213.193V116.982H205.61V122.832Z" fill="#FAFAFA"/>
<path d="M190.916 122.832H198.499V116.982H190.916V122.832Z" fill="#FAFAFA"/>
<path d="M234.992 133.468H242.582V127.613H234.992V133.468Z" fill="#FAFAFA"/>
<path d="M220.298 133.468H227.888V127.613H220.298V133.468Z" fill="#FAFAFA"/>
<path d="M205.61 133.468H213.193V127.613H205.61V133.468Z" fill="#FAFAFA"/>
<path d="M190.916 133.468H198.499V127.613H190.916V133.468Z" fill="#FAFAFA"/>
<path d="M234.992 144.099H242.582V138.244H234.992V144.099Z" fill="#FAFAFA"/>
<path d="M220.298 144.099H227.888V138.244H220.298V144.099Z" fill="#FAFAFA"/>
<path d="M205.61 144.099H213.193V138.244H205.61V144.099Z" fill="#FAFAFA"/>
<path d="M220.298 113.643H227.888V107.793H220.298V113.643Z" fill="#FAFAFA"/>
<path d="M205.61 113.643H213.193V107.793H205.61V113.643Z" fill="#FAFAFA"/>
<path d="M190.916 144.099H198.499V138.244H190.916V144.099Z" fill="#FAFAFA"/>
<path d="M234.992 154.73H242.582V148.881H234.992V154.73Z" fill="#FAFAFA"/>
<path d="M220.298 154.73H227.888V148.881H220.298V154.73Z" fill="#FAFAFA"/>
<path d="M205.61 154.73H213.193V148.881H205.61V154.73Z" fill="#FAFAFA"/>
<path d="M190.916 154.73H198.499V148.881H190.916V154.73Z" fill="#FAFAFA"/>
<path d="M234.992 165.366H242.582V159.512H234.992V165.366Z" fill="#FAFAFA"/>
<path d="M220.298 165.366H227.888V159.512H220.298V165.366Z" fill="#FAFAFA"/>
<path d="M205.61 165.366H213.193V159.512H205.61V165.366Z" fill="#FAFAFA"/>
<path d="M190.916 165.366H198.499V159.512H190.916V165.366Z" fill="#FAFAFA"/>
<path d="M234.992 175.997H242.582V170.143H234.992V175.997Z" fill="#FAFAFA"/>
<path d="M220.298 175.997H227.888V170.143H220.298V175.997Z" fill="#FAFAFA"/>
<path d="M205.61 175.997H213.193V170.143H205.61V175.997Z" fill="#FAFAFA"/>
<path d="M190.916 175.997H198.499V170.143H190.916V175.997Z" fill="#FAFAFA"/>
<path d="M234.992 186.628H242.582V180.774H234.992V186.628Z" fill="#FAFAFA"/>
<path d="M220.298 186.628H227.888V180.774H220.298V186.628Z" fill="#FAFAFA"/>
<path d="M205.61 186.628H213.193V180.774H205.61V186.628Z" fill="#FAFAFA"/>
<path d="M190.916 186.628H198.499V180.774H190.916V186.628Z" fill="#FAFAFA"/>
<path d="M247.601 112.924H185.897V114.118H247.601V112.924Z" fill="#F5F5F5"/>
<path d="M200.041 103.017V91.313H198.492V103.017H200.041Z" fill="#EBEBEB"/>
<path d="M234.992 103.011V91.3076H233.444V103.011H234.992Z" fill="#EBEBEB"/>
<path d="M217.517 103.011V91.3076H215.968V103.011H217.517Z" fill="#EBEBEB"/>
<path d="M236.547 101.817H196.951V103.012H236.547V101.817Z" fill="#F5F5F5"/>
<path d="M236.547 90.7109H196.951V91.9051H236.547V90.7109Z" fill="#F5F5F5"/>
<path d="M200.047 91.9049V80.2012H198.499V91.9049H200.047Z" fill="#EBEBEB"/>
<path d="M234.992 91.9049V80.2012H233.444V91.9049H234.992Z" fill="#EBEBEB"/>
<path d="M217.523 91.9049V80.2012H215.975V91.9049H217.523Z" fill="#EBEBEB"/>
<path d="M236.547 79.6094H196.951V80.8035H236.547V79.6094Z" fill="#F5F5F5"/>
<path d="M200.047 80.8034V69.0996H198.499V80.8034H200.047Z" fill="#EBEBEB"/>
<path d="M234.999 80.8034V69.0996H233.451V80.8034H234.999Z" fill="#EBEBEB"/>
<path d="M217.523 80.8034V69.0996H215.975V80.8034H217.523Z" fill="#EBEBEB"/>
<path d="M236.547 68.5024H196.951V69.6966H236.547V68.5024Z" fill="#F5F5F5"/>
<path d="M234.992 69.6964V57.9927H233.444V69.6964H234.992Z" fill="#EBEBEB"/>
<path d="M217.516 69.6965V57.9927H215.968V69.6965H217.516Z" fill="#EBEBEB"/>
<path d="M206.719 83.723V81.2436C206.706 81.1718 206.661 81.1058 206.59 81.058C206.52 81.0102 206.429 80.9839 206.335 80.9839C206.241 80.9839 206.15 81.0102 206.08 81.058C206.009 81.1058 205.963 81.1718 205.951 81.2436V83.9659C205.953 84.0447 205.994 84.1199 206.066 84.1756C206.139 84.2313 206.236 84.2632 206.338 84.2645C207.552 84.3555 208.431 85.5193 207.427 86.2885C207.206 86.4416 206.933 86.5433 206.64 86.5819C206.347 86.6205 206.046 86.5943 205.772 86.5064C205.497 86.4186 205.261 86.2726 205.089 86.0854C204.918 85.8982 204.819 85.6774 204.803 85.4485C204.751 85.0741 203.983 85.069 204.036 85.4485C204.226 86.9159 206.456 87.8925 207.972 86.7084C209.382 85.6104 208.411 84.0519 206.719 83.723Z" fill="#EBEBEB"/>
<path d="M150.224 65.9267V71.3005L142.877 65.6484L142.516 65.9267H142.004V116.932H151.228V65.9267H150.224ZM143.008 104.838L149.463 109.817H143.008V104.838ZM143.008 92.1881L149.463 97.1672H143.008V92.1881ZM143.008 79.5381L149.463 84.5222H143.008V79.5381ZM143.008 66.8881L149.463 71.8672H143.008V66.8881ZM149.463 72.6565L143.008 77.6255V72.6464L149.463 72.6565ZM150.191 73.2131V78.1922H143.73L150.191 73.2131ZM149.463 85.3065L143.008 90.2805V85.2964L149.463 85.3065ZM150.191 85.8682V90.8472H143.73L150.191 85.8682ZM149.463 97.9616L143.008 102.931V97.9515L149.463 97.9616ZM150.191 98.5182V103.497H143.73L150.191 98.5182ZM149.463 110.617L143.008 115.586V110.607L149.463 110.617ZM143.73 116.152L150.191 111.173V116.152H143.73ZM150.191 109.271L143.73 104.287H150.224L150.191 109.271ZM150.191 96.6207L143.73 91.6417H150.224L150.191 96.6207ZM150.191 83.9707L143.73 78.9917H150.224L150.191 83.9707Z" fill="#F0F0F0"/>
<path d="M143.008 49.1226V59.0098H144.031V55.2148L149.279 59.2628L149.64 58.9845H150.224V49.1226H143.008ZM148.44 49.9119L144.031 53.3122V49.9119H148.44ZM149.161 58.0585L144.779 54.6481H149.181L149.161 58.0585ZM144.759 53.8688L149.161 50.4685V53.8688H144.759Z" fill="#F0F0F0"/>
<path d="M126.188 65.9268H113.888V75.4143H126.188V65.9268Z" fill="#E6E6E6"/>
<path d="M206.502 79.6142H205.82V61.3678L148.532 46.7191H144.746L114.072 61.4032L113.711 60.9579L144.55 46.1929H148.643L148.696 46.203L206.502 60.9883V79.6142Z" fill="#E6E6E6"/>
<path d="M199.496 66.337H200.205L207.421 60.771H113.376V66.3066H199.496V66.337ZM200.519 61.5755H204.928L200.519 64.9708V61.5755ZM114.4 65.5325V62.1321L118.808 65.5325H114.4ZM119.53 64.9708L115.121 61.5755H119.53V64.9708ZM120.553 61.5755H124.961L120.553 64.9708V61.5755ZM125.683 65.5325H121.275L125.683 62.1321V65.5325ZM126.706 65.5325V62.1321L131.108 65.5325H126.706ZM131.856 64.9708L127.454 61.5755H131.856V64.9708ZM132.879 61.5755H137.288L132.879 64.9708V61.5755ZM138.009 65.5325H133.607L138.009 62.1321V65.5325ZM139.033 65.5325V62.1321L143.441 65.5325H139.033ZM144.162 64.9708L139.728 61.5755H144.136L144.162 64.9708ZM145.186 61.5755H149.568L145.166 64.9708L145.186 61.5755ZM150.316 65.5325H145.907L150.316 62.1321V65.5325ZM151.339 65.5325V62.1321L155.741 65.5325H151.339ZM156.462 64.9708L152.061 61.5755H156.462V64.9708ZM157.486 61.5755H161.894L157.44 64.9708L157.486 61.5755ZM162.616 65.5325H158.207L162.616 62.1321V65.5325ZM163.639 65.5325V62.1321L168.047 65.5325H163.639ZM168.769 64.9708L164.361 61.5755H168.769V64.9708ZM169.792 61.5755H174.194L169.792 64.9708V61.5755ZM174.922 65.5325H170.514L174.922 62.1321V65.5325ZM175.939 65.5325V62.1321L180.347 65.5325H175.939ZM181.056 64.9708L176.654 61.5755H181.056V64.9708ZM182.079 61.5755H186.488L182.079 64.9708V61.5755ZM187.209 65.5325H182.801L187.209 62.1321V65.5325ZM188.233 61.5755H192.634L188.233 64.9708V61.5755ZM193.362 65.5325H188.928L193.336 62.1321L193.362 65.5325ZM194.386 65.5325V62.1321L198.788 65.5325H194.386ZM195.107 61.5755H199.509V64.9708L195.107 61.5755Z" fill="#F0F0F0"/>
<path d="M155.78 68.0773H136.861L137.55 61.9395C137.64 61.1395 138.116 60.3948 138.884 59.8524C139.652 59.3099 140.655 59.0093 141.696 59.0098H150.71C151.73 59.0095 152.715 59.2986 153.477 59.822C154.239 60.3454 154.725 61.0666 154.842 61.8484L155.78 68.0773Z" fill="#F0F0F0"/>
<path d="M143.546 61.5601H139.912V64.3633H143.546V61.5601Z" fill="#FAFAFA"/>
<path d="M148.138 61.5601H144.504V64.3633H148.138V61.5601Z" fill="#FAFAFA"/>
<path d="M152.73 61.5601H149.096V64.3633H152.73V61.5601Z" fill="#FAFAFA"/>
<path d="M146.616 49.5226C147.986 49.5226 149.096 48.6663 149.096 47.6099C149.096 46.5536 147.986 45.6973 146.616 45.6973C145.247 45.6973 144.136 46.5536 144.136 47.6099C144.136 48.6663 145.247 49.5226 146.616 49.5226Z" fill="#E6E6E6"/>
<path d="M206.338 82.878C205.776 82.878 205.237 82.7058 204.84 82.3993C204.442 82.0927 204.219 81.677 204.219 81.2436V79.6143H208.457V81.2436C208.457 81.677 208.234 82.0927 207.836 82.3993C207.439 82.7058 206.9 82.878 206.338 82.878Z" fill="#E6E6E6"/>
<path d="M210.13 70.5465V68.4263C210.13 68.3592 210.164 68.2949 210.226 68.2474C210.288 68.2 210.371 68.1733 210.458 68.1733C210.545 68.1733 210.628 68.2 210.69 68.2474C210.751 68.2949 210.786 68.3592 210.786 68.4263V70.7539C210.784 70.8206 210.749 70.8842 210.688 70.9314C210.627 70.9786 210.544 71.0056 210.458 71.0069C209.421 71.0879 208.667 72.0797 209.526 72.7425C209.715 72.8754 209.949 72.9641 210.201 72.9981C210.452 73.0322 210.711 73.0103 210.948 72.9349C211.184 72.8595 211.387 72.7338 211.534 72.5724C211.681 72.4111 211.765 72.2209 211.776 72.024C211.822 71.7002 212.478 71.7002 212.432 72.024C212.268 73.2789 210.366 74.1138 209.067 73.1018C207.768 72.0898 208.687 70.84 210.13 70.5465Z" fill="#EBEBEB"/>
<path d="M257.592 55.3213V98.9486H265.464V55.3213H265.024L264.716 55.0835L258.464 59.9158V55.3213H257.592ZM264.611 92.8615H259.12L264.644 88.6009L264.611 92.8615ZM264.611 82.0381H259.12L264.644 77.7776L264.611 82.0381ZM264.611 71.2148H259.12L264.644 66.9593L264.611 71.2148ZM264.611 60.3965H259.12L264.644 56.136L264.611 60.3965ZM264.611 61.0695V65.33L259.12 61.0695H264.611ZM263.988 65.8056H258.464V61.5451L263.988 65.8056ZM264.611 71.8776V76.1331L259.12 71.8928L264.611 71.8776ZM263.988 76.6138H258.464V72.3583L263.988 76.6138ZM264.611 82.6858V86.9463L259.12 82.7111L264.611 82.6858ZM263.988 87.422H258.464V83.1665L263.988 87.422ZM264.611 93.494V97.7545L259.12 93.5344L264.611 93.494ZM258.464 98.2706V94.0101L263.981 98.2706H258.464ZM258.464 88.1253H263.981L258.464 92.3858V88.1253ZM258.464 77.302H263.981L258.464 81.5625V77.302ZM258.464 66.4786H263.981L258.464 70.7391V66.4786Z" fill="#EBEBEB"/>
<path d="M258.464 40.9507V49.4059H258.903L259.212 49.6438L263.712 46.1625V49.4059H264.584V40.9507H258.464ZM263.712 41.6237V44.5281L259.946 41.6186L263.712 41.6237ZM259.323 45.6717H263.095L259.343 48.5761L259.323 45.6717ZM259.323 44.9987V42.1044L263.115 45.0341L259.323 44.9987Z" fill="#EBEBEB"/>
<path d="M279.01 63.4375H289.532V55.3213H279.01V63.4375Z" fill="#F0F0F0"/>
<path d="M210.32 67.0299H210.904V51.4249L259.901 38.8913H263.141L289.375 51.4552L289.683 51.0707L263.305 38.4409H259.809L259.763 38.4561L210.32 51.101V67.0299Z" fill="#E6E6E6"/>
<path d="M216.31 55.66H289.952V50.9238H209.553L215.706 55.6701H216.31V55.66ZM215.437 54.5063L211.665 51.612H215.437V54.5063ZM285.327 54.982L289.093 52.0775V54.982H285.327ZM284.704 51.612H288.476L284.704 54.5063V51.612ZM283.832 54.5164L280.066 51.612H283.832V54.5164ZM279.443 52.0876L283.215 54.9921H279.456L279.443 52.0876ZM274.805 54.9921L278.57 52.0876V54.9921H274.805ZM274.208 51.612H277.98L274.208 54.5063V51.612ZM273.336 54.5164L269.544 51.612H273.309L273.336 54.5164ZM268.947 52.0876L272.719 54.9921H268.947V52.0876ZM264.309 54.9921L268.074 52.0876V54.9921H264.309ZM263.686 51.612H267.458L263.686 54.5164V51.612ZM262.813 54.5164L259.022 51.612H262.787L262.813 54.5164ZM258.425 52.0876L262.197 54.9921H258.398L258.425 52.0876ZM253.787 54.9921L257.552 52.0876V54.9921H253.787ZM253.164 51.612H256.936L253.164 54.5164V51.612ZM252.291 54.5164L248.493 51.612H252.265L252.291 54.5164ZM247.902 52.0876L251.674 54.9921H247.902V52.0876ZM243.258 54.9921L247.03 52.0876V54.9921H243.258ZM242.641 51.612H246.413L242.641 54.5164V51.612ZM241.769 54.5164L237.971 51.612H241.743L241.769 54.5164ZM237.38 52.0876L241.152 54.9921H237.38V52.0876ZM232.736 54.9921L236.508 52.0876V54.9921H232.736ZM232.093 51.612H235.865L232.093 54.5164V51.612ZM231.22 54.5164L227.448 51.612H231.22V54.5164ZM226.832 52.0876L230.604 54.9921H226.832V52.0876ZM225.959 54.5164L222.187 51.612H225.959V54.5164ZM221.571 52.0876L225.336 54.9921H221.571V52.0876ZM216.926 54.9921L220.698 52.0876V54.9921H216.926ZM216.31 54.5164V51.612H220.075L216.31 54.5164Z" fill="#EBEBEB"/>
<path d="M253.701 57.1783H269.885L269.295 51.926C269.224 51.2374 268.819 50.5946 268.161 50.1258C267.504 49.6569 266.641 49.3964 265.746 49.396H258.038C257.165 49.3964 256.323 49.644 255.671 50.0917C255.019 50.5394 254.603 51.1561 254.502 51.8248L253.701 57.1783Z" fill="#EBEBEB"/>
<path d="M264.164 53.9805H267.274V51.582H264.164V53.9805Z" fill="#FAFAFA"/>
<path d="M260.235 53.9805H263.345V51.582H260.235V53.9805Z" fill="#FAFAFA"/>
<path d="M256.312 53.9805H259.422V51.582H256.312V53.9805Z" fill="#FAFAFA"/>
<path d="M259.422 39.6554C259.422 39.9786 259.546 40.2946 259.779 40.5634C260.012 40.8322 260.343 41.0416 260.73 41.1653C261.117 41.289 261.543 41.3214 261.954 41.2583C262.365 41.1953 262.743 41.0396 263.039 40.8111C263.335 40.5825 263.537 40.2913 263.619 39.9742C263.701 39.6572 263.659 39.3286 263.498 39.0299C263.338 38.7313 263.066 38.476 262.718 38.2964C262.369 38.1169 261.96 38.021 261.541 38.021C261.262 38.021 260.987 38.0633 260.73 38.1454C260.473 38.2275 260.239 38.3479 260.042 38.4997C259.846 38.6515 259.69 38.8316 259.583 39.0299C259.477 39.2282 259.422 39.4407 259.422 39.6554Z" fill="#E6E6E6"/>
<path d="M210.458 69.8281C210.695 69.8288 210.931 69.7933 211.15 69.7236C211.37 69.654 211.569 69.5516 211.738 69.4223C211.906 69.293 212.039 69.1394 212.13 68.9703C212.221 68.8011 212.268 68.6198 212.268 68.4366V67.04H208.647V68.4366C208.649 68.8061 208.84 69.16 209.18 69.4208C209.519 69.6816 209.979 69.8281 210.458 69.8281Z" fill="#E6E6E6"/>
<path d="M160.838 214.397C231.084 214.397 288.03 211.833 288.03 208.669C288.03 205.506 231.084 202.941 160.838 202.941C90.592 202.941 33.6462 205.506 33.6462 208.669C33.6462 211.833 90.592 214.397 160.838 214.397Z" fill="#F5F5F5"/>
<path d="M121.242 181.254H245.823V173.831H121.242V181.254Z" fill="#FFC100"/>
<path opacity="0.2" d="M121.242 181.254H245.823V173.831H121.242V181.254Z" fill="black"/>
<path d="M264.656 175.491H270.049C273.083 175.547 275.969 176.516 278.089 178.191C280.21 179.866 281.397 182.114 281.397 184.455C281.397 186.796 280.21 189.044 278.089 190.719C275.969 192.394 273.083 193.363 270.049 193.419H264.656C261.622 193.363 258.736 192.394 256.616 190.719C254.495 189.044 253.308 186.796 253.308 184.455C253.308 182.114 254.495 179.866 256.616 178.191C258.736 176.516 261.622 175.547 264.656 175.491Z" fill="#263238"/>
<path opacity="0.5" d="M275.391 187.889C277.846 183.316 275.031 178.074 269.103 176.18C263.175 174.286 256.379 176.458 253.924 181.03C251.468 185.602 254.283 190.844 260.211 192.738C266.139 194.632 272.935 192.461 275.391 187.889Z" fill="black"/>
<path d="M172.79 175.491H178.176C179.726 175.463 181.267 175.674 182.709 176.111C184.151 176.549 185.465 177.205 186.574 178.04C187.683 178.875 188.564 179.873 189.165 180.975C189.767 182.076 190.077 183.26 190.077 184.455C190.077 185.65 189.767 186.834 189.165 187.935C188.564 189.037 187.683 190.035 186.574 190.87C185.465 191.705 184.151 192.361 182.709 192.799C181.267 193.236 179.726 193.447 178.176 193.419H172.79C171.241 193.447 169.7 193.236 168.258 192.799C166.816 192.361 165.502 191.705 164.393 190.87C163.284 190.035 162.403 189.037 161.801 187.935C161.2 186.834 160.89 185.65 160.89 184.455C160.89 183.26 161.2 182.076 161.801 180.975C162.403 179.873 163.284 178.875 164.393 178.04C165.502 177.205 166.816 176.549 168.258 176.111C169.7 175.674 171.241 175.463 172.79 175.491Z" fill="#263238"/>
<path opacity="0.5" d="M183.524 187.883C185.979 183.311 183.164 178.069 177.236 176.175C171.308 174.281 164.512 176.452 162.057 181.025C159.602 185.597 162.417 190.839 168.345 192.733C174.272 194.627 181.068 192.456 183.524 187.883Z" fill="black"/>
<path d="M232.224 175.491H237.61C239.159 175.463 240.7 175.674 242.142 176.111C243.584 176.549 244.899 177.205 246.007 178.04C247.116 178.875 247.997 179.873 248.599 180.975C249.2 182.076 249.51 183.26 249.51 184.455C249.51 185.65 249.2 186.834 248.599 187.935C247.997 189.037 247.116 190.035 246.007 190.87C244.899 191.705 243.584 192.361 242.142 192.799C240.7 193.236 239.159 193.447 237.61 193.419H232.224C230.675 193.447 229.134 193.236 227.692 192.799C226.249 192.361 224.935 191.705 223.827 190.87C222.718 190.035 221.837 189.037 221.235 187.935C220.634 186.834 220.324 185.65 220.324 184.455C220.324 183.26 220.634 182.076 221.235 180.975C221.837 179.873 222.718 178.875 223.827 178.04C224.935 177.205 226.249 176.549 227.692 176.111C229.134 175.674 230.675 175.463 232.224 175.491Z" fill="#263238"/>
<path opacity="0.5" d="M232.224 175.491H237.61C239.159 175.463 240.7 175.674 242.142 176.111C243.584 176.549 244.899 177.205 246.007 178.04C247.116 178.875 247.997 179.873 248.599 180.975C249.2 182.076 249.51 183.26 249.51 184.455C249.51 185.65 249.2 186.834 248.599 187.935C247.997 189.037 247.116 190.035 246.007 190.87C244.899 191.705 243.584 192.361 242.142 192.799C240.7 193.236 239.159 193.447 237.61 193.419H232.224C230.675 193.447 229.134 193.236 227.692 192.799C226.249 192.361 224.935 191.705 223.827 190.87C222.718 190.035 221.837 189.037 221.235 187.935C220.634 186.834 220.324 185.65 220.324 184.455C220.324 183.26 220.634 182.076 221.235 180.975C221.837 179.873 222.718 178.875 223.827 178.04C224.935 177.205 226.249 176.549 227.692 176.111C229.134 175.674 230.675 175.463 232.224 175.491Z" fill="black"/>
<path d="M203.944 175.491H209.33C210.879 175.463 212.42 175.674 213.862 176.111C215.304 176.549 216.618 177.205 217.727 178.04C218.836 178.875 219.717 179.873 220.318 180.975C220.92 182.076 221.23 183.26 221.23 184.455C221.23 185.65 220.92 186.834 220.318 187.935C219.717 189.037 218.836 190.035 217.727 190.87C216.618 191.705 215.304 192.361 213.862 192.799C212.42 193.236 210.879 193.447 209.33 193.419H203.944C202.394 193.447 200.853 193.236 199.411 192.799C197.969 192.361 196.655 191.705 195.546 190.87C194.437 190.035 193.556 189.037 192.955 187.935C192.353 186.834 192.043 185.65 192.043 184.455C192.043 183.26 192.353 182.076 192.955 180.975C193.556 179.873 194.437 178.875 195.546 178.04C196.655 177.205 197.969 176.549 199.411 176.111C200.853 175.674 202.394 175.463 203.944 175.491Z" fill="#263238"/>
<path opacity="0.5" d="M203.944 175.491H209.33C210.879 175.463 212.42 175.674 213.862 176.111C215.304 176.549 216.618 177.205 217.727 178.04C218.836 178.875 219.717 179.873 220.318 180.975C220.92 182.076 221.23 183.26 221.23 184.455C221.23 185.65 220.92 186.834 220.318 187.935C219.717 189.037 218.836 190.035 217.727 190.87C216.618 191.705 215.304 192.361 213.862 192.799C212.42 193.236 210.879 193.447 209.33 193.419H203.944C202.394 193.447 200.853 193.236 199.411 192.799C197.969 192.361 196.655 191.705 195.546 190.87C194.437 190.035 193.556 189.037 192.955 187.935C192.353 186.834 192.043 185.65 192.043 184.455C192.043 183.26 192.353 182.076 192.955 180.975C193.556 179.873 194.437 178.875 195.546 178.04C196.655 177.205 197.969 176.549 199.411 176.111C200.853 175.674 202.394 175.463 203.944 175.491Z" fill="black"/>
<path d="M138.167 175.491H143.552C145.102 175.463 146.643 175.674 148.085 176.111C149.527 176.549 150.841 177.205 151.95 178.04C153.059 178.875 153.94 179.873 154.541 180.975C155.143 182.076 155.453 183.26 155.453 184.455C155.453 185.65 155.143 186.834 154.541 187.935C153.94 189.037 153.059 190.035 151.95 190.87C150.841 191.705 149.527 192.361 148.085 192.799C146.643 193.236 145.102 193.447 143.552 193.419H138.167C136.617 193.447 135.076 193.236 133.634 192.799C132.192 192.361 130.878 191.705 129.769 190.87C128.66 190.035 127.779 189.037 127.178 187.935C126.576 186.834 126.266 185.65 126.266 184.455C126.266 183.26 126.576 182.076 127.178 180.975C127.779 179.873 128.66 178.875 129.769 178.04C130.878 177.205 132.192 176.549 133.634 176.111C135.076 175.674 136.617 175.463 138.167 175.491Z" fill="#263238"/>
<path opacity="0.5" d="M138.167 175.491H143.552C145.102 175.463 146.643 175.674 148.085 176.111C149.527 176.549 150.841 177.205 151.95 178.04C153.059 178.875 153.94 179.873 154.541 180.975C155.143 182.076 155.453 183.26 155.453 184.455C155.453 185.65 155.143 186.834 154.541 187.935C153.94 189.037 153.059 190.035 151.95 190.87C150.841 191.705 149.527 192.361 148.085 192.799C146.643 193.236 145.102 193.447 143.552 193.419H138.167C136.617 193.447 135.076 193.236 133.634 192.799C132.192 192.361 130.878 191.705 129.769 190.87C128.66 190.035 127.779 189.037 127.178 187.935C126.576 186.834 126.266 185.65 126.266 184.455C126.266 183.26 126.576 182.076 127.178 180.975C127.779 179.873 128.66 178.875 129.769 178.04C130.878 177.205 132.192 176.549 133.634 176.111C135.076 175.674 136.617 175.463 138.167 175.491Z" fill="black"/>
<path d="M148.901 187.885C151.357 183.312 148.542 178.07 142.614 176.176C136.686 174.282 129.89 176.454 127.435 181.026C124.979 185.598 127.794 190.841 133.722 192.735C139.65 194.628 146.446 192.457 148.901 187.885Z" fill="#263238"/>
<path d="M130.328 184.457C130.328 185.658 130.789 186.832 131.654 187.831C132.519 188.829 133.749 189.607 135.187 190.067C136.626 190.527 138.208 190.647 139.735 190.413C141.262 190.178 142.665 189.6 143.766 188.751C144.867 187.902 145.617 186.82 145.92 185.642C146.224 184.464 146.068 183.243 145.472 182.134C144.877 181.024 143.868 180.076 142.573 179.409C141.278 178.741 139.757 178.385 138.2 178.385C137.165 178.382 136.139 178.537 135.182 178.841C134.225 179.145 133.355 179.592 132.624 180.156C131.892 180.721 131.312 181.391 130.918 182.13C130.524 182.868 130.323 183.659 130.328 184.457ZM142.857 185.727L142.516 185.444C142.432 185.378 142.369 185.298 142.331 185.21C142.294 185.123 142.283 185.029 142.3 184.938C142.37 184.621 142.37 184.298 142.3 183.982C142.283 183.89 142.294 183.797 142.331 183.709C142.369 183.621 142.432 183.542 142.516 183.476L142.857 183.192C142.961 183.107 143.094 183.046 143.24 183.016C143.386 182.985 143.54 182.986 143.686 183.018C143.832 183.051 143.963 183.113 144.065 183.199C144.168 183.285 144.238 183.391 144.268 183.506C144.434 184.141 144.434 184.794 144.268 185.429C144.235 185.542 144.163 185.647 144.06 185.731C143.956 185.815 143.824 185.876 143.679 185.906C143.534 185.937 143.381 185.937 143.236 185.905C143.091 185.874 142.96 185.812 142.857 185.727ZM139.072 188.232L139.223 187.853C139.262 187.761 139.327 187.678 139.413 187.609C139.5 187.54 139.605 187.486 139.722 187.453C140.087 187.34 140.43 187.187 140.738 186.997C140.83 186.941 140.935 186.9 141.048 186.878C141.161 186.855 141.279 186.851 141.394 186.866L141.906 186.957C142.055 186.984 142.191 187.041 142.299 187.124C142.408 187.206 142.485 187.311 142.522 187.425C142.558 187.539 142.553 187.659 142.507 187.771C142.461 187.883 142.376 187.983 142.26 188.06C141.634 188.485 140.905 188.81 140.115 189.016C139.973 189.049 139.822 189.052 139.677 189.025C139.533 188.998 139.401 188.941 139.294 188.861C139.188 188.781 139.111 188.68 139.072 188.57C139.033 188.459 139.033 188.343 139.072 188.232ZM140.141 179.908C140.932 180.113 141.662 180.438 142.286 180.865C142.4 180.942 142.484 181.042 142.529 181.153C142.574 181.265 142.578 181.383 142.542 181.497C142.505 181.61 142.429 181.713 142.321 181.795C142.214 181.878 142.079 181.935 141.932 181.963L141.421 182.054C141.305 182.071 141.187 182.068 141.073 182.045C140.96 182.022 140.854 181.98 140.765 181.922C140.455 181.735 140.112 181.582 139.748 181.467C139.631 181.434 139.526 181.382 139.44 181.314C139.353 181.245 139.288 181.163 139.249 181.072L139.098 180.693C139.055 180.581 139.052 180.462 139.09 180.349C139.127 180.237 139.205 180.134 139.313 180.052C139.421 179.971 139.556 179.914 139.703 179.888C139.851 179.862 140.004 179.867 140.148 179.903L140.141 179.908ZM137.242 180.693L137.091 181.072C137.052 181.163 136.987 181.245 136.9 181.314C136.814 181.382 136.709 181.434 136.592 181.467C136.228 181.582 135.885 181.735 135.576 181.922C135.486 181.98 135.38 182.022 135.267 182.045C135.153 182.068 135.035 182.071 134.92 182.054L134.408 181.963C134.261 181.935 134.126 181.878 134.019 181.795C133.911 181.713 133.835 181.61 133.798 181.497C133.762 181.383 133.766 181.265 133.811 181.153C133.856 181.042 133.94 180.942 134.054 180.865C134.678 180.438 135.408 180.113 136.199 179.908C136.341 179.873 136.493 179.868 136.639 179.894C136.784 179.92 136.918 179.976 137.026 180.056C137.134 180.136 137.211 180.237 137.25 180.348C137.289 180.459 137.289 180.577 137.248 180.688L137.242 180.693ZM134.382 186.957L134.893 186.866C135.009 186.851 135.126 186.855 135.239 186.878C135.352 186.9 135.458 186.941 135.549 186.997C135.858 187.187 136.2 187.34 136.566 187.453C136.683 187.486 136.788 187.54 136.874 187.609C136.96 187.678 137.026 187.761 137.065 187.853L137.216 188.232C137.257 188.345 137.258 188.464 137.218 188.577C137.178 188.69 137.098 188.793 136.988 188.874C136.878 188.954 136.742 189.01 136.593 189.035C136.445 189.061 136.29 189.054 136.146 189.016C135.356 188.81 134.627 188.485 134.001 188.06C133.886 187.981 133.802 187.878 133.758 187.764C133.714 187.65 133.712 187.529 133.752 187.414C133.793 187.299 133.873 187.195 133.985 187.113C134.098 187.032 134.237 186.976 134.388 186.952L134.382 186.957ZM132.053 185.439C131.887 184.804 131.887 184.151 132.053 183.516C132.083 183.402 132.152 183.295 132.255 183.209C132.358 183.123 132.489 183.061 132.634 183.028C132.78 182.996 132.934 182.995 133.08 183.026C133.227 183.057 133.359 183.118 133.463 183.202L133.811 183.486C133.893 183.553 133.954 183.633 133.991 183.72C134.027 183.808 134.037 183.901 134.021 183.992C133.96 184.309 133.96 184.631 134.021 184.948C134.037 185.039 134.027 185.132 133.991 185.22C133.954 185.307 133.893 185.387 133.811 185.454L133.463 185.737C133.358 185.821 133.226 185.881 133.08 185.91C132.934 185.94 132.781 185.938 132.636 185.905C132.492 185.872 132.362 185.81 132.26 185.724C132.158 185.638 132.089 185.533 132.059 185.419L132.053 185.439Z" fill="#FFC100"/>
<path d="M214.68 187.886C217.135 183.314 214.32 178.072 208.392 176.178C202.464 174.284 195.668 176.455 193.213 181.028C190.757 185.6 193.572 190.842 199.5 192.736C205.428 194.63 212.224 192.459 214.68 187.886Z" fill="#263238"/>
<path d="M196.104 184.457C196.111 185.652 196.576 186.819 197.442 187.81C198.307 188.801 199.533 189.572 200.966 190.026C202.399 190.479 203.975 190.596 205.493 190.359C207.012 190.123 208.405 189.545 209.498 188.699C210.591 187.852 211.335 186.775 211.635 185.602C211.934 184.43 211.777 183.216 211.183 182.112C210.589 181.009 209.584 180.066 208.295 179.403C207.007 178.739 205.493 178.385 203.944 178.385C202.911 178.385 201.889 178.542 200.936 178.848C199.983 179.153 199.117 179.601 198.389 180.165C197.66 180.729 197.084 181.399 196.692 182.135C196.3 182.872 196.1 183.661 196.104 184.457ZM208.634 185.727L208.293 185.444C208.21 185.377 208.148 185.297 208.11 185.21C208.073 185.122 208.061 185.029 208.076 184.938C208.146 184.621 208.146 184.298 208.076 183.982C208.061 183.89 208.073 183.797 208.11 183.71C208.148 183.622 208.21 183.542 208.293 183.476L208.608 183.172C208.712 183.087 208.844 183.026 208.991 182.995C209.137 182.965 209.291 182.966 209.437 182.998C209.582 183.03 209.713 183.093 209.816 183.179C209.919 183.265 209.989 183.371 210.018 183.486C210.193 184.12 210.193 184.775 210.018 185.409C209.989 185.524 209.92 185.63 209.818 185.717C209.716 185.803 209.585 185.867 209.439 185.9C209.293 185.933 209.139 185.934 208.992 185.904C208.845 185.873 208.712 185.812 208.608 185.727H208.634ZM204.855 188.232L205.006 187.852C205.046 187.762 205.112 187.679 205.198 187.61C205.284 187.541 205.389 187.487 205.505 187.453C205.873 187.34 206.218 187.187 206.528 186.997C206.619 186.94 206.724 186.899 206.838 186.876C206.951 186.854 207.069 186.85 207.184 186.866L207.696 186.957C207.845 186.983 207.981 187.041 208.089 187.124C208.198 187.206 208.275 187.31 208.312 187.425C208.348 187.539 208.343 187.659 208.297 187.771C208.251 187.883 208.166 187.983 208.05 188.06C207.425 188.486 206.696 188.811 205.905 189.016C205.762 189.05 205.61 189.054 205.465 189.027C205.32 189.001 205.186 188.944 205.079 188.864C204.972 188.784 204.894 188.683 204.855 188.572C204.816 188.46 204.816 188.343 204.855 188.232ZM205.925 179.908C206.716 180.112 207.446 180.437 208.07 180.865C208.183 180.942 208.267 181.042 208.312 181.153C208.357 181.265 208.362 181.383 208.325 181.497C208.289 181.61 208.212 181.713 208.105 181.795C207.997 181.878 207.863 181.935 207.716 181.963L207.204 182.054C207.089 182.072 206.97 182.069 206.856 182.046C206.743 182.023 206.637 181.981 206.548 181.922C206.236 181.735 205.891 181.581 205.525 181.467C205.409 181.433 205.304 181.381 205.218 181.312C205.132 181.244 205.066 181.162 205.026 181.072L204.875 180.693C204.832 180.581 204.829 180.462 204.866 180.349C204.904 180.237 204.981 180.134 205.09 180.052C205.198 179.971 205.333 179.914 205.48 179.888C205.627 179.862 205.781 179.867 205.925 179.903V179.908ZM203.025 180.693L202.874 181.072C202.836 181.162 202.771 181.244 202.686 181.312C202.601 181.381 202.497 181.433 202.382 181.467C202.015 181.58 201.67 181.734 201.359 181.922C201.269 181.98 201.164 182.022 201.05 182.045C200.937 182.068 200.818 182.071 200.703 182.054L200.198 181.963C200.051 181.935 199.916 181.878 199.809 181.795C199.701 181.713 199.625 181.61 199.588 181.497C199.552 181.383 199.556 181.265 199.601 181.153C199.646 181.042 199.73 180.942 199.844 180.865C200.467 180.437 201.197 180.112 201.989 179.908C202.13 179.875 202.281 179.872 202.424 179.899C202.568 179.926 202.699 179.982 202.805 180.062C202.911 180.142 202.987 180.242 203.026 180.352C203.065 180.462 203.064 180.578 203.025 180.688V180.693ZM200.172 186.957L200.677 186.866C200.792 186.851 200.91 186.855 201.023 186.878C201.136 186.9 201.241 186.941 201.333 186.997C201.642 187.188 201.987 187.342 202.356 187.453C202.471 187.487 202.575 187.541 202.66 187.61C202.745 187.679 202.809 187.762 202.848 187.852L202.999 188.232C203.042 188.344 203.045 188.464 203.006 188.577C202.967 188.691 202.888 188.793 202.778 188.875C202.668 188.956 202.532 189.012 202.383 189.037C202.235 189.062 202.08 189.055 201.936 189.016C201.146 188.811 200.416 188.486 199.791 188.06C199.674 187.982 199.587 187.88 199.542 187.766C199.496 187.652 199.493 187.53 199.532 187.414C199.572 187.299 199.653 187.194 199.766 187.112C199.879 187.03 200.02 186.975 200.172 186.952V186.957ZM197.836 185.439C197.67 184.804 197.67 184.151 197.836 183.516C197.865 183.4 197.935 183.293 198.038 183.206C198.141 183.119 198.273 183.056 198.42 183.024C198.567 182.991 198.722 182.991 198.869 183.022C199.016 183.054 199.149 183.116 199.253 183.202L199.594 183.486C199.676 183.552 199.738 183.633 199.774 183.72C199.811 183.808 199.821 183.901 199.804 183.992C199.743 184.309 199.743 184.631 199.804 184.948C199.821 185.039 199.811 185.132 199.774 185.22C199.738 185.307 199.676 185.387 199.594 185.454L199.253 185.737C199.149 185.824 199.015 185.886 198.868 185.917C198.72 185.948 198.564 185.947 198.418 185.914C198.271 185.881 198.139 185.818 198.036 185.73C197.933 185.642 197.864 185.535 197.836 185.419V185.439Z" fill="#FFC100"/>
<path d="M242.958 187.887C245.413 183.314 242.598 178.072 236.671 176.178C230.743 174.284 223.947 176.456 221.491 181.028C219.036 185.6 221.851 190.842 227.779 192.736C233.707 194.63 240.503 192.459 242.958 187.887Z" fill="#263238"/>
<path d="M244.301 179.868H248.932V183.577H245.652C245.508 182.286 245.05 181.028 244.301 179.868Z" fill="#263238"/>
<path d="M218.809 183.577H217.359C217.227 182.288 216.782 181.03 216.047 179.868H220.167C219.415 181.028 218.955 182.286 218.809 183.577Z" fill="#263238"/>
<g opacity="0.8">
<path opacity="0.8" d="M244.301 179.868H248.932V183.577H245.652C245.508 182.286 245.05 181.028 244.301 179.868Z" fill="white"/>
<path opacity="0.8" d="M218.809 183.577H217.359C217.227 182.288 216.782 181.03 216.047 179.868H220.167C219.415 181.028 218.955 182.286 218.809 183.577Z" fill="white"/>
</g>
<path d="M224.385 184.457C224.391 185.652 224.857 186.819 225.722 187.81C226.587 188.801 227.814 189.572 229.247 190.026C230.68 190.479 232.255 190.596 233.773 190.359C235.292 190.123 236.686 189.545 237.779 188.699C238.872 187.852 239.615 186.775 239.915 185.602C240.215 184.43 240.058 183.216 239.463 182.112C238.869 181.009 237.864 180.066 236.576 179.403C235.287 178.739 233.773 178.385 232.224 178.385C231.192 178.385 230.17 178.542 229.217 178.848C228.263 179.153 227.398 179.601 226.669 180.165C225.941 180.729 225.364 181.399 224.972 182.135C224.58 182.872 224.381 183.661 224.385 184.457ZM236.914 185.727L236.573 185.444C236.489 185.378 236.426 185.298 236.389 185.21C236.351 185.123 236.34 185.029 236.357 184.938C236.427 184.621 236.427 184.298 236.357 183.982C236.34 183.89 236.351 183.797 236.389 183.709C236.426 183.621 236.489 183.541 236.573 183.476L236.914 183.192C237.019 183.107 237.151 183.046 237.297 183.016C237.443 182.985 237.598 182.986 237.743 183.018C237.889 183.051 238.02 183.113 238.123 183.199C238.225 183.285 238.295 183.391 238.325 183.506C238.491 184.14 238.491 184.794 238.325 185.429C238.292 185.542 238.221 185.647 238.117 185.731C238.013 185.815 237.882 185.876 237.736 185.906C237.591 185.937 237.438 185.937 237.293 185.905C237.148 185.873 237.017 185.812 236.914 185.727ZM233.136 188.232L233.287 187.852C233.327 187.762 233.392 187.679 233.478 187.61C233.564 187.541 233.669 187.487 233.785 187.453C234.153 187.34 234.498 187.187 234.809 186.997C234.899 186.94 235.005 186.899 235.118 186.876C235.231 186.853 235.35 186.85 235.465 186.866L235.976 186.957C236.125 186.983 236.261 187.041 236.37 187.124C236.478 187.206 236.555 187.31 236.592 187.425C236.629 187.539 236.624 187.659 236.577 187.771C236.531 187.883 236.446 187.983 236.331 188.06C235.705 188.486 234.976 188.811 234.185 189.016C234.043 189.05 233.891 189.054 233.745 189.027C233.6 189.001 233.467 188.944 233.36 188.864C233.252 188.784 233.175 188.683 233.135 188.572C233.096 188.46 233.096 188.343 233.136 188.232ZM234.192 179.903C234.984 180.107 235.714 180.432 236.337 180.86C236.451 180.937 236.534 181.037 236.579 181.148C236.624 181.259 236.629 181.378 236.592 181.492C236.556 181.605 236.48 181.708 236.372 181.79C236.265 181.873 236.13 181.93 235.983 181.958L235.471 182.049C235.356 182.067 235.237 182.065 235.123 182.042C235.01 182.019 234.904 181.976 234.815 181.917C234.503 181.73 234.159 181.576 233.792 181.462C233.676 181.428 233.572 181.376 233.485 181.307C233.399 181.239 233.334 181.157 233.293 181.067L233.142 180.688C233.1 180.576 233.099 180.458 233.137 180.346C233.176 180.234 233.253 180.132 233.361 180.052C233.469 179.971 233.603 179.914 233.75 179.888C233.896 179.862 234.049 179.867 234.192 179.903ZM231.293 180.688L231.142 181.067C231.103 181.157 231.038 181.239 230.953 181.307C230.868 181.375 230.765 181.428 230.65 181.462C230.282 181.575 229.938 181.729 229.626 181.917C229.537 181.975 229.431 182.017 229.318 182.04C229.204 182.063 229.085 182.066 228.97 182.049L228.465 181.958C228.318 181.93 228.183 181.873 228.076 181.79C227.968 181.708 227.892 181.605 227.856 181.492C227.819 181.378 227.824 181.259 227.869 181.148C227.914 181.037 227.997 180.937 228.111 180.86C228.735 180.432 229.464 180.107 230.256 179.903C230.399 179.867 230.552 179.862 230.698 179.888C230.845 179.914 230.979 179.971 231.087 180.052C231.195 180.132 231.272 180.234 231.311 180.346C231.349 180.458 231.348 180.576 231.306 180.688H231.293ZM228.439 186.952L228.944 186.861C229.059 186.846 229.177 186.85 229.29 186.873C229.403 186.895 229.509 186.936 229.6 186.992C229.91 187.183 230.255 187.336 230.623 187.448C230.738 187.482 230.842 187.536 230.927 187.605C231.012 187.674 231.077 187.757 231.115 187.847L231.266 188.227C231.31 188.339 231.312 188.459 231.273 188.572C231.234 188.686 231.155 188.788 231.045 188.869C230.936 188.951 230.799 189.007 230.65 189.032C230.502 189.057 230.347 189.05 230.204 189.011C229.413 188.806 228.684 188.481 228.058 188.055C227.943 187.976 227.859 187.873 227.815 187.759C227.771 187.645 227.769 187.524 227.81 187.409C227.851 187.294 227.933 187.19 228.046 187.11C228.16 187.029 228.3 186.974 228.452 186.952H228.439ZM226.104 185.434C225.937 184.799 225.937 184.146 226.104 183.511C226.132 183.395 226.202 183.288 226.305 183.201C226.408 183.114 226.54 183.051 226.687 183.019C226.834 182.986 226.989 182.986 227.137 183.017C227.284 183.049 227.417 183.111 227.521 183.197L227.862 183.481C227.944 183.547 228.005 183.628 228.041 183.715C228.078 183.803 228.088 183.896 228.072 183.987C228.01 184.304 228.01 184.626 228.072 184.943C228.088 185.034 228.078 185.127 228.041 185.214C228.005 185.302 227.944 185.382 227.862 185.449L227.521 185.732C227.416 185.816 227.284 185.876 227.139 185.905C226.994 185.935 226.84 185.934 226.696 185.902C226.552 185.869 226.421 185.807 226.319 185.722C226.217 185.637 226.147 185.532 226.117 185.419L226.104 185.434Z" fill="#FFC100"/>
<path d="M160.471 179.868H179.79V135.583H160.471V179.868Z" fill="#FFC100"/>
<path opacity="0.2" d="M160.471 179.868H179.79V135.583H160.471V179.868Z" fill="black"/>
<path d="M130.006 135.608H160.359V179.894H150.224C149.113 178.154 147.392 176.689 145.257 175.665C143.122 174.641 140.658 174.098 138.144 174.098C135.63 174.098 133.165 174.641 131.031 175.665C128.896 176.689 127.175 178.154 126.064 179.894H104.849V154.988L130.006 135.608Z" fill="#FFC100"/>
<path d="M110.91 162.143V158.272C110.91 157.845 111.019 157.423 111.23 157.029C111.442 156.635 111.752 156.276 112.143 155.975L131.279 141.21C132.07 140.602 133.14 140.26 134.257 140.258H149.443V162.143H110.91Z" fill="#263238"/>
<path opacity="0.5" d="M110.91 162.143V158.272C110.91 157.845 111.019 157.423 111.23 157.029C111.442 156.635 111.752 156.276 112.143 155.975L131.279 141.21C132.07 140.602 133.14 140.26 134.257 140.258H149.443V162.143H110.91Z" fill="white"/>
<path d="M250.749 179.868H286.521V170.72H250.749V179.868Z" fill="#FFC100"/>
<path opacity="0.2" d="M250.749 179.868H286.521V170.72H250.749V179.868Z" fill="black"/>
<path d="M257.48 175.961H279.791C280.359 175.961 280.82 175.606 280.82 175.167V173.436C280.82 172.998 280.359 172.642 279.791 172.642H257.48C256.911 172.642 256.45 172.998 256.45 173.436V175.167C256.45 175.606 256.911 175.961 257.48 175.961Z" fill="white"/>
<path d="M128.209 164.192H132.145C132.459 164.21 132.752 164.318 132.967 164.496C133.181 164.674 133.301 164.908 133.301 165.151C133.301 165.394 133.181 165.628 132.967 165.805C132.752 165.983 132.459 166.092 132.145 166.11H128.209C127.894 166.092 127.601 165.983 127.386 165.805C127.172 165.628 127.052 165.394 127.052 165.151C127.052 164.908 127.172 164.674 127.386 164.496C127.601 164.318 127.894 164.21 128.209 164.192Z" fill="white"/>
<path d="M108.017 176.407H104.599C104.182 176.407 103.781 176.279 103.486 176.051C103.191 175.823 103.025 175.514 103.025 175.192V167.891C103.025 167.569 103.191 167.26 103.486 167.032C103.781 166.804 104.182 166.676 104.599 166.676H108.017C108.397 166.676 108.773 166.734 109.124 166.846C109.475 166.958 109.794 167.123 110.063 167.33C110.331 167.537 110.544 167.783 110.69 168.054C110.835 168.325 110.91 168.615 110.91 168.908V174.175C110.91 174.468 110.835 174.758 110.69 175.029C110.544 175.3 110.331 175.546 110.063 175.753C109.794 175.96 109.475 176.125 109.124 176.237C108.773 176.349 108.397 176.407 108.017 176.407Z" fill="#FFC100"/>
<path opacity="0.2" d="M108.017 176.407H104.599C104.182 176.407 103.781 176.279 103.486 176.051C103.191 175.823 103.025 175.514 103.025 175.192V167.891C103.025 167.569 103.191 167.26 103.486 167.032C103.781 166.804 104.182 166.676 104.599 166.676H108.017C108.397 166.676 108.773 166.734 109.124 166.846C109.475 166.958 109.794 167.123 110.063 167.33C110.331 167.537 110.544 167.783 110.69 168.054C110.835 168.325 110.91 168.615 110.91 168.908V174.175C110.91 174.468 110.835 174.758 110.69 175.029C110.544 175.3 110.331 175.546 110.063 175.753C109.794 175.96 109.475 176.125 109.124 176.237C108.773 176.349 108.397 176.407 108.017 176.407Z" fill="black"/>
<path d="M105.393 175.486C105.689 175.486 105.972 175.395 106.181 175.234C106.391 175.073 106.508 174.854 106.508 174.626V168.447C106.506 168.22 106.388 168.003 106.179 167.842C105.97 167.682 105.687 167.592 105.393 167.592C105.102 167.596 104.825 167.688 104.622 167.848C104.418 168.008 104.304 168.223 104.304 168.447V174.626C104.304 174.85 104.418 175.066 104.621 175.227C104.825 175.388 105.102 175.481 105.393 175.486Z" fill="white"/>
<path d="M113.731 159.588C114.026 159.588 114.31 159.497 114.519 159.336C114.728 159.174 114.846 158.956 114.846 158.727V152.549C114.846 152.321 114.728 152.102 114.519 151.941C114.31 151.78 114.026 151.689 113.731 151.689C113.436 151.69 113.154 151.782 112.946 151.943C112.739 152.104 112.622 152.322 112.622 152.549V158.727C112.622 158.955 112.739 159.173 112.946 159.334C113.154 159.495 113.436 159.586 113.731 159.588Z" fill="#263238"/>
<path d="M175.808 147.337H183.765C185.787 147.339 187.731 147.934 189.204 149.002C190.677 150.069 191.569 151.529 191.697 153.085C191.826 154.641 191.182 156.176 189.896 157.379C188.611 158.582 186.78 159.363 184.776 159.562L188.01 179.124H167.844V153.47C167.848 151.843 168.688 150.283 170.181 149.133C171.675 147.983 173.698 147.337 175.808 147.337Z" fill="#263238"/>
<path d="M175.808 147.337C177.829 147.341 179.772 147.936 181.244 149.004C182.716 150.072 183.606 151.532 183.734 153.087C183.861 154.643 183.217 156.177 181.932 157.38C180.646 158.582 178.816 159.363 176.812 159.562L180.052 179.124H167.844V153.47C167.848 151.843 168.688 150.283 170.181 149.133C171.675 147.983 173.698 147.337 175.808 147.337Z" fill="#263238"/>
<path opacity="0.2" d="M175.808 147.337C177.829 147.341 179.772 147.936 181.244 149.004C182.716 150.072 183.606 151.532 183.734 153.087C183.861 154.643 183.217 156.177 181.932 157.38C180.646 158.582 178.816 159.363 176.812 159.562L180.052 179.124H167.844V153.47C167.848 151.843 168.688 150.283 170.181 149.133C171.675 147.983 173.698 147.337 175.808 147.337Z" fill="white"/>
<path d="M197.869 124.623C195.579 128.885 194.4 133.453 194.399 138.067C194.398 142.68 195.576 147.249 197.864 151.511C200.153 155.774 203.508 159.646 207.738 162.908C211.967 166.17 216.989 168.758 222.515 170.522L197.909 169.976C190.241 167.526 184.149 162.826 180.972 156.912C177.796 150.997 177.795 144.352 180.971 138.437L197.869 124.623Z" fill="#FFC100"/>
<path opacity="0.6" d="M197.869 124.623C195.579 128.885 194.4 133.453 194.399 138.067C194.398 142.68 195.576 147.249 197.864 151.511C200.153 155.774 203.508 159.646 207.738 162.908C211.967 166.17 216.989 168.758 222.515 170.522L197.909 169.976C190.241 167.526 184.149 162.826 180.972 156.912C177.796 150.997 177.795 144.352 180.971 138.437L197.869 124.623Z" fill="white"/>
<path d="M261.245 112.777C258.07 118.692 258.071 125.338 261.247 131.252C264.423 137.167 270.515 141.866 278.183 144.316C279.756 141.388 280.566 138.249 280.566 135.078C280.566 131.908 279.757 128.769 278.184 125.841C276.611 122.912 274.306 120.251 271.399 118.009C268.493 115.768 265.043 113.99 261.245 112.777Z" fill="#FFC100"/>
<path opacity="0.2" d="M261.245 112.777C258.07 118.692 258.071 125.338 261.247 131.252C264.423 137.167 270.515 141.866 278.183 144.316C279.756 141.388 280.566 138.249 280.566 135.078C280.566 131.908 279.757 128.769 278.184 125.841C276.611 122.912 274.306 120.251 271.399 118.009C268.493 115.768 265.043 113.99 261.245 112.777Z" fill="white"/>
<path d="M262.289 119.983C261.295 123.511 261.723 127.189 263.516 130.525C265.309 133.86 268.38 136.693 272.319 138.644C272.749 138.858 273.239 138.989 273.749 139.026C274.258 139.062 274.771 139.004 275.245 138.855C275.719 138.706 276.139 138.471 276.47 138.17C276.801 137.869 277.034 137.511 277.147 137.126C278.145 133.595 277.719 129.914 275.926 126.575C274.133 123.237 271.059 120.401 267.117 118.449C266.685 118.235 266.194 118.105 265.683 118.069C265.172 118.033 264.658 118.093 264.184 118.244C263.71 118.394 263.29 118.631 262.96 118.934C262.63 119.237 262.399 119.596 262.289 119.983Z" fill="#263238"/>
<path opacity="0.1" d="M262.289 119.983C261.295 123.511 261.723 127.189 263.516 130.525C265.309 133.86 268.38 136.693 272.319 138.644C272.749 138.858 273.239 138.989 273.749 139.026C274.258 139.062 274.771 139.004 275.245 138.855C275.719 138.706 276.139 138.471 276.47 138.17C276.801 137.869 277.034 137.511 277.147 137.126C278.145 133.595 277.719 129.914 275.926 126.575C274.133 123.237 271.059 120.401 267.117 118.449C266.685 118.235 266.194 118.105 265.683 118.069C265.172 118.033 264.658 118.093 264.184 118.244C263.71 118.394 263.29 118.631 262.96 118.934C262.63 119.237 262.399 119.596 262.289 119.983Z" fill="white"/>
<path opacity="0.7" d="M268.632 136.392C266.392 134.697 264.625 132.666 263.44 130.425C262.256 128.183 261.678 125.778 261.744 123.358C263.984 125.053 265.75 127.084 266.935 129.326C268.119 131.568 268.697 133.972 268.632 136.392Z" fill="black"/>
<path d="M197.869 124.623C195.579 128.884 194.4 133.453 194.399 138.066C194.398 142.68 195.576 147.248 197.864 151.511C200.153 155.773 203.508 159.646 207.738 162.908C211.968 166.17 216.989 168.757 222.515 170.522L261.285 158.135C255.76 156.37 250.74 153.782 246.511 150.52C242.283 147.259 238.929 143.386 236.641 139.124C234.353 134.863 233.176 130.295 233.176 125.682C233.177 121.069 234.356 116.502 236.646 112.241L197.869 124.623Z" fill="#FFC100"/>
<path opacity="0.7" d="M197.869 124.623C195.579 128.884 194.4 133.453 194.399 138.066C194.398 142.68 195.576 147.248 197.864 151.511C200.153 155.773 203.508 159.646 207.738 162.908C211.968 166.17 216.989 168.757 222.515 170.522L261.285 158.135C255.76 156.37 250.74 153.782 246.511 150.52C242.283 147.259 238.929 143.386 236.641 139.124C234.353 134.863 233.176 130.295 233.176 125.682C233.177 121.069 234.356 116.502 236.646 112.241L197.869 124.623Z" fill="white"/>
<path d="M236.645 112.231C234.356 116.492 233.177 121.06 233.176 125.672C233.176 130.285 234.353 134.853 236.641 139.115C238.929 143.376 242.283 147.249 246.511 150.511C250.74 153.773 255.76 156.36 261.285 158.125L278.183 144.316C270.516 141.866 264.424 137.167 261.247 131.252C258.071 125.338 258.07 118.692 261.245 112.777L236.645 112.231Z" fill="#FFC100"/>
<path opacity="0.8" d="M236.645 112.231C234.356 116.492 233.177 121.06 233.176 125.672C233.176 130.285 234.353 134.853 236.641 139.115C238.929 143.376 242.283 147.249 246.511 150.511C250.74 153.773 255.76 156.36 261.285 158.125L278.183 144.316C270.516 141.866 264.424 137.167 261.247 131.252C258.071 125.338 258.07 118.692 261.245 112.777L236.645 112.231Z" fill="white"/>
<path d="M250.749 170.714V179.868H244.301C243.189 178.128 241.469 176.664 239.334 175.639C237.199 174.615 234.735 174.072 232.221 174.072C229.706 174.072 227.242 174.615 225.107 175.639C222.972 176.664 221.252 178.128 220.14 179.868H216.021C214.909 178.128 213.189 176.664 211.054 175.639C208.919 174.615 206.455 174.072 203.94 174.072C201.426 174.072 198.962 174.615 196.827 175.639C194.692 176.664 192.972 178.128 191.86 179.868H160.372V170.714H250.749Z" fill="#FFC100"/>
<path opacity="0.1" d="M190.896 166.869C193.901 164.253 198.158 161.581 203.36 159.036C208.273 164.137 214.895 168.108 222.515 170.522L197.909 169.976C195.406 169.179 193.049 168.135 190.896 166.869Z" fill="black"/>
<path opacity="0.1" d="M203.406 159.036C212.119 154.91 221.465 151.638 231.227 149.296C235.032 148.355 238.791 147.57 242.458 146.917C247.328 151.88 253.828 155.749 261.285 158.125L222.515 170.522C214.912 168.102 208.306 164.132 203.406 159.036Z" fill="black"/>
<path opacity="0.1" d="M276.753 145.485L261.285 158.135C253.827 155.759 247.328 151.89 242.458 146.927C256.004 144.514 268.245 144.069 276.753 145.485Z" fill="black"/>
<path d="M288.338 179.868H248.932V183.577H288.338V179.868Z" fill="#263238"/>
<path d="M126.083 179.868C125.348 181.03 124.903 182.288 124.771 183.577H102.146V179.868H126.083Z" fill="#263238"/>
<path d="M190.515 183.375H151.569C151.435 182.16 151.027 180.974 150.362 179.868H191.69C191.036 180.975 190.638 182.162 190.515 183.375Z" fill="#263238"/>
<path opacity="0.5" d="M288.338 179.868H248.932V183.577H288.338V179.868Z" fill="white"/>
<path opacity="0.8" d="M126.083 179.868C125.348 181.03 124.903 182.288 124.771 183.577H102.146V179.868H126.083Z" fill="white"/>
<path opacity="0.8" d="M190.515 183.375H151.569C151.435 182.16 151.027 180.974 150.362 179.868H191.69C191.036 180.975 190.638 182.162 190.515 183.375Z" fill="white"/>
<path d="M271.584 149.715L274.654 170.714H249.969L253.032 149.776C255.511 151.654 258.85 152.701 262.324 152.69C265.799 152.679 269.127 151.61 271.584 149.715Z" fill="#263238"/>
<path opacity="0.5" d="M271.584 149.715L274.654 170.714H249.969L253.032 149.776C255.511 151.654 258.85 152.701 262.324 152.69C265.799 152.679 269.127 151.61 271.584 149.715Z" fill="white"/>
<path d="M245.823 170.714L248.886 149.771H253.019L249.956 170.714H245.823Z" fill="#263238"/>
<path opacity="0.2" d="M245.823 170.714L248.886 149.771H253.019L249.956 170.714H245.823Z" fill="white"/>
<path d="M75.6564 79.4673C75.6564 79.4673 86.6509 83.3736 125.138 80.1909L118.736 119.618C104.521 120.189 90.2778 119.052 76.5157 116.248L75.6564 79.4673Z" fill="#FFC100"/>
<path opacity="0.8" d="M75.6564 79.4673C75.6564 79.4673 86.6509 83.3736 125.138 80.1909L118.736 119.618C104.521 120.189 90.2778 119.052 76.5157 116.248L75.6564 79.4673Z" fill="white"/>
<path opacity="0.1" d="M79.5007 83.2573L80.2158 113.997C91.7349 116.111 103.56 117.066 115.397 116.841L120.829 83.4445C98.3017 85.0637 85.8115 84.1884 79.5007 83.2573Z" fill="black"/>
<path d="M121.885 118.758C121.813 119.355 120.396 119.77 118.73 119.618C117.063 119.467 115.764 118.905 115.843 118.308L119.556 79.1688C119.661 78.3339 121.629 77.7925 123.951 77.9696C126.274 78.1467 128.071 78.9816 127.966 79.7963L121.885 118.758Z" fill="#FFC100"/>
<path opacity="0.6" d="M121.885 118.758C121.813 119.355 120.396 119.77 118.73 119.618C117.063 119.467 115.764 118.905 115.843 118.308L119.556 79.1688C119.661 78.3339 121.629 77.7925 123.951 77.9696C126.274 78.1467 128.071 78.9816 127.966 79.7963L121.885 118.758Z" fill="white"/>
<path opacity="0.1" d="M121.885 118.758C121.813 119.355 120.396 119.77 118.73 119.618C117.063 119.467 115.764 118.905 115.843 118.308C115.922 117.711 117.332 117.321 118.998 117.443C120.665 117.564 121.964 118.156 121.885 118.758Z" fill="black"/>
<path d="M104.055 99.7227L105.058 99.7531C105.058 99.6367 105.058 99.576 105.117 99.4546H104.514C104.553 99.2775 104.573 99.1864 104.606 99.0093H104.206C104.147 99.2724 104.114 99.4242 104.055 99.7227Z" fill="#FFC100"/>
<path d="M106.069 99.4849H107.02C107.02 99.6063 107.02 99.667 106.967 99.7885L106.01 99.7632C106.036 99.6822 106.042 99.6012 106.069 99.4849ZM107.971 99.5253H108.929C108.929 99.6468 108.896 99.7075 108.876 99.8289H107.919C107.938 99.7075 107.951 99.6468 107.971 99.5253Z" fill="#FFC100"/>
<path d="M109.88 99.5557H110.831C110.831 99.6822 110.831 99.7429 110.785 99.8643H109.828C109.847 99.7429 109.86 99.6822 109.88 99.5557ZM111.789 99.5557H112.74C112.74 99.6822 112.74 99.7429 112.701 99.8643H111.743C111.763 99.7581 111.769 99.6822 111.789 99.5759V99.5557ZM113.698 99.5557H114.656C114.656 99.6771 114.656 99.7429 114.61 99.8643H113.659C113.672 99.7631 113.678 99.6822 113.698 99.5759V99.5557Z" fill="#FFC100"/>
<path d="M115.568 99.8795H116.571C116.611 99.5658 116.63 99.4089 116.663 99.0952H116.263C116.263 99.2824 116.263 99.3786 116.211 99.5658H115.607C115.594 99.6822 115.587 99.753 115.568 99.8795Z" fill="#FFC100"/>
<path d="M116.44 97.5972H116.834C116.834 97.8957 116.781 98.0475 116.748 98.3461H116.355C116.388 98.0475 116.407 97.8957 116.44 97.5972ZM116.611 96.1045H117.004C116.971 96.403 116.952 96.5548 116.919 96.8534H116.525C116.558 96.5498 116.578 96.403 116.611 96.1045Z" fill="#FFC100"/>
<path d="M116.768 94.6219H117.155C117.155 94.9255 117.109 95.0723 117.076 95.3759H116.689C116.729 95.0571 116.768 94.9053 116.768 94.6219ZM116.925 93.1039H117.313C117.28 93.4025 117.267 93.5543 117.234 93.8528H116.847C116.886 93.5543 116.906 93.4075 116.932 93.1039H116.925ZM117.083 91.5859H117.463C117.463 91.8895 117.417 92.0413 117.391 92.3399H117.004C117.044 92.0565 117.057 91.9047 117.089 91.5859H117.083Z" fill="#FFC100"/>
<path d="M117.168 90.8523H117.542C117.542 90.5386 117.588 90.3818 117.621 90.063L116.683 90.1085L116.65 90.4222H117.214C117.195 90.574 117.188 90.6601 117.168 90.8523Z" fill="#FFC100"/>
<path d="M113.088 90.2197L113.987 90.1944C113.987 90.3158 113.987 90.3816 113.947 90.503L113.048 90.5334C113.068 90.4069 113.075 90.3462 113.088 90.2197ZM114.885 90.159L115.784 90.1235L115.751 90.4423L114.846 90.4727C114.866 90.3462 114.872 90.2855 114.885 90.159Z" fill="#FFC100"/>
<path d="M107.702 90.3213H108.601C108.601 90.4427 108.568 90.5034 108.548 90.6249H107.65C107.676 90.5034 107.683 90.4427 107.702 90.3213ZM109.5 90.3213H110.398C110.398 90.4427 110.398 90.5085 110.352 90.6299H109.454C109.467 90.4883 109.48 90.4225 109.5 90.301V90.3213ZM111.291 90.2909L112.189 90.2656C112.189 90.3921 112.189 90.4528 112.15 90.5743H111.251C111.264 90.4528 111.277 90.3921 111.291 90.2707V90.2909Z" fill="#FFC100"/>
<path d="M105.728 91.0801H106.108C106.141 90.898 106.154 90.8119 106.187 90.6298H106.751C106.751 90.5083 106.784 90.4476 106.803 90.3262H105.865C105.813 90.6348 105.78 90.7866 105.728 91.0801Z" fill="#FFC100"/>
<path d="M105.327 93.2456H105.708L105.577 93.9642H105.19C105.249 93.6757 105.275 93.5341 105.327 93.2456ZM105.596 91.8086H105.977L105.846 92.5271H105.465L105.596 91.8086Z" fill="#FFC100"/>
<path d="M104.494 97.5466H104.888C104.836 97.8299 104.803 97.9767 104.75 98.26H104.35C104.409 97.9767 104.435 97.8299 104.494 97.5466ZM104.776 96.1146H105.17C105.111 96.398 105.085 96.5447 105.026 96.8281H104.639C104.691 96.5447 104.724 96.403 104.776 96.1399V96.1146ZM105.052 94.6826H105.439L105.308 95.4011H104.914C104.96 95.1279 105 94.966 105.052 94.6826Z" fill="#FFC100"/>
<path d="M91.9974 99.0141L92.9946 99.095C93.0274 98.9786 93.0405 98.923 93.0733 98.8117L92.4829 98.7611C92.5288 98.5941 92.555 98.5081 92.601 98.336L92.2074 98.3057L91.9974 99.0141Z" fill="#FFC100"/>
<path d="M94.0246 98.8828L94.9693 98.9486L94.8905 99.237L93.9393 99.1763L94.0246 98.8828ZM95.9204 99.0144L96.8651 99.0751C96.8651 99.1915 96.8192 99.2471 96.7929 99.3635L95.8417 99.3028C95.8745 99.1763 95.8876 99.1257 95.9204 99.0144Z" fill="#FFC100"/>
<path d="M97.8162 99.1304L98.7674 99.186C98.7346 99.3024 98.7215 99.3581 98.6952 99.4744L97.744 99.4188C97.744 99.3024 97.7834 99.2467 97.8162 99.1304ZM99.712 99.2316L100.663 99.2822L100.598 99.5756L99.6464 99.525L99.712 99.2316ZM101.614 99.3226L102.566 99.3631L102.5 99.6617L101.549 99.6212L101.614 99.3226Z" fill="#FFC100"/>
<path d="M103.458 99.682L104.455 99.7175C104.514 99.4189 104.547 99.2722 104.606 98.9736H104.206C104.206 99.1558 104.153 99.2418 104.114 99.424L103.517 99.3987C103.491 99.5201 103.484 99.5808 103.458 99.682Z" fill="#FFC100"/>
<path d="M104.494 97.5467H104.888C104.836 97.8301 104.803 97.9768 104.75 98.2602H104.35C104.409 97.9718 104.435 97.8301 104.494 97.5467ZM104.776 96.1147H105.17C105.111 96.3981 105.085 96.5448 105.026 96.8282H104.639C104.691 96.5448 104.724 96.4032 104.776 96.14V96.1147Z" fill="#FFC100"/>
<path d="M105.052 94.6827H105.439L105.308 95.4012H104.914C104.96 95.128 104.999 94.966 105.052 94.6827ZM105.327 93.2456H105.708L105.577 93.9642H105.19C105.249 93.6757 105.275 93.5341 105.327 93.2456ZM105.596 91.8086H105.977L105.846 92.5271H105.465L105.596 91.8086Z" fill="#FFC100"/>
<path d="M105.728 91.0801H106.108L106.239 90.3262H105.301C105.301 90.4476 105.268 90.5083 105.249 90.6247H105.813C105.78 90.8119 105.76 90.903 105.728 91.0801Z" fill="#FFC100"/>
<path d="M101.713 90.3008H102.611L102.546 90.5993L101.68 90.574L101.713 90.3008ZM103.504 90.3008H104.402C104.402 90.4222 104.37 90.4829 104.343 90.6044H103.445C103.471 90.5032 103.484 90.4425 103.504 90.321V90.3008Z" fill="#FFC100"/>
<path d="M96.3403 90.1543L97.2325 90.1847C97.2325 90.301 97.1866 90.3618 97.1603 90.4781L96.2616 90.4427C96.2944 90.3314 96.3075 90.2707 96.3403 90.1543ZM98.1312 90.215L99.0234 90.2403L98.9578 90.5338H98.059C98.0853 90.3921 98.0984 90.3314 98.1312 90.215ZM99.9221 90.2656H100.814C100.814 90.3871 100.781 90.4478 100.755 90.5642H99.8565L99.9221 90.2656Z" fill="#FFC100"/>
<path d="M94.3132 90.7968H94.6872C94.7331 90.6247 94.7593 90.5387 94.8052 90.3616H95.3694C95.3694 90.2452 95.4088 90.1896 95.4416 90.0732L94.5035 90.0327C94.4248 90.3667 94.3854 90.5084 94.3132 90.7968Z" fill="#FFC100"/>
<path d="M93.7491 92.8561H94.1296L93.9459 93.5392H93.5588C93.6376 93.266 93.6769 93.1294 93.7491 92.8561ZM94.123 91.4849H94.5035L94.3198 92.168H93.9393L94.123 91.4849Z" fill="#FFC100"/>
<path d="M92.601 96.9444L92.9946 96.9748L92.7978 97.6579L92.4042 97.6276L92.601 96.9444ZM92.988 95.5833H93.3751C93.2963 95.8565 93.2635 95.9932 93.1848 96.2664L92.7912 96.2411L92.988 95.5833ZM93.3685 94.2222H93.7555C93.6834 94.4954 93.644 94.632 93.5653 94.9103L93.1782 94.885C93.257 94.6219 93.2963 94.4954 93.3685 94.2222Z" fill="#FFC100"/>
<path d="M80.032 97.7643L81.016 97.8857L81.1144 97.6176L80.524 97.5417C80.5896 97.3848 80.6224 97.3038 80.6814 97.1419L80.2878 97.0913C80.1894 97.3595 80.1435 97.4961 80.032 97.7643Z" fill="#FFC100"/>
<path d="M82.0657 97.729L83.0037 97.8403L82.9053 98.1136L81.9607 98.0022C82.0001 97.896 82.0001 97.8403 82.0657 97.729ZM83.9418 97.9466L84.8865 98.0528L84.7881 98.3261L83.8434 98.2249L83.9418 97.9466Z" fill="#FFC100"/>
<path d="M85.8245 98.1641L86.7691 98.2602C86.7298 98.3715 86.7101 98.4272 86.6773 98.5385L85.7327 98.4373C85.772 98.3209 85.7851 98.2653 85.8245 98.1641ZM87.7072 98.3513L88.6519 98.4424C88.6519 98.5537 88.5994 98.6093 88.5666 98.7257L87.6219 98.6296L87.7072 98.3513ZM89.5965 98.5284L90.5411 98.6144C90.5083 98.7257 90.4887 98.7814 90.4559 98.8978L89.5112 98.8117C89.544 98.6701 89.5637 98.6346 89.5965 98.5183V98.5284Z" fill="#FFC100"/>
<path d="M91.4071 98.9685L92.3977 99.0495C92.4829 98.7661 92.5223 98.6194 92.601 98.336L92.2074 98.3057C92.1549 98.4777 92.1353 98.5637 92.0828 98.7307L91.4858 98.6852C91.453 98.7965 91.4399 98.8521 91.4071 98.9685Z" fill="#FFC100"/>
<path d="M92.601 96.9446L92.9946 96.975L92.7978 97.6581L92.4042 97.6277L92.601 96.9446ZM92.988 95.5835H93.3751C93.2963 95.8567 93.2635 95.9934 93.1848 96.2666L92.7912 96.2413L92.988 95.5835Z" fill="#FFC100"/>
<path d="M93.3683 94.2223H93.7554C93.6832 94.4956 93.6439 94.6322 93.5651 94.9105L93.1781 94.8852C93.2568 94.6221 93.2962 94.4956 93.3683 94.2223ZM93.7488 92.8561H94.1293L93.9456 93.5392H93.5586C93.6373 93.266 93.6767 93.1294 93.7488 92.8561ZM94.1227 91.4849H94.5032L94.3195 92.168H93.9391L94.1227 91.4849Z" fill="#FFC100"/>
<path d="M94.3131 90.7965H94.687C94.7658 90.5081 94.8051 90.3613 94.8773 90.0729L93.9392 90.0679C93.9392 90.1843 93.8933 90.2399 93.8605 90.3563L94.4246 90.3816L94.3131 90.7965Z" fill="#FFC100"/>
<path d="M90.3641 89.8555L91.2563 89.9111C91.2235 90.0225 91.2103 90.0832 91.1775 90.1945L90.2788 90.1388C90.3116 90.0275 90.3313 89.9719 90.3641 89.8555ZM92.155 89.9617L93.0471 90.0073L92.9684 90.2957L92.0697 90.2451L92.155 89.9617Z" fill="#FFC100"/>
<path d="M85.0111 89.4712L85.936 89.5623C85.8967 89.6736 85.8836 89.7293 85.8442 89.8406L84.952 89.7647C84.9586 89.6331 84.9717 89.5623 85.0111 89.4712ZM86.7954 89.6129L87.6876 89.6786C87.6482 89.79 87.6351 89.8456 87.5957 89.9569L86.7036 89.8912C86.7429 89.7798 86.756 89.7242 86.7954 89.6129ZM88.5797 89.7394L89.4719 89.8001L89.3866 90.0835L88.4944 90.0227L88.5797 89.7394Z" fill="#FFC100"/>
<path d="M82.9447 89.9922L83.3186 90.0276C83.3777 89.8606 83.4039 89.7797 83.4629 89.6177L84.0271 89.6683C84.0665 89.557 84.0861 89.5014 84.1189 89.39L83.1874 89.3091L82.9447 89.9922Z" fill="#FFC100"/>
<path d="M82.2362 91.935L82.6101 91.9755C82.5182 92.2336 82.4723 92.3651 82.3739 92.6232L82 92.5979L82.2362 91.935ZM82.7085 90.6396L83.0824 90.6751C82.9906 90.9382 82.9446 91.0647 82.8462 91.3278L82.4723 91.2873C82.5642 91.0293 82.6166 90.8977 82.7085 90.6396Z" fill="#FFC100"/>
<path d="M80.7864 95.806L81.1735 95.8515C81.0751 96.1096 81.0291 96.2412 80.9307 96.4942L80.5437 96.4486L80.7864 95.806ZM81.2719 94.5208L81.6589 94.5612L81.4162 95.2089L81.0291 95.1634L81.2719 94.5208ZM81.7573 93.2305L82.1378 93.2709C82.0394 93.529 81.9935 93.6606 81.9016 93.9186L81.5146 93.8731L81.7573 93.2305Z" fill="#FFC100"/>
<path d="M98.282 110.723L99.3513 110.814C99.3513 110.697 99.3906 110.637 99.4234 110.52L98.7674 110.47L98.8789 110.03L98.4525 109.994C98.4001 110.308 98.3541 110.434 98.282 110.723Z" fill="#FFC100"/>
<path d="M100.742 110.627L102.054 110.728L101.988 111.022L100.676 110.92C100.696 110.814 100.709 110.743 100.742 110.627ZM103.366 110.819L104.678 110.905L104.612 111.204L103.3 111.118L103.366 110.819Z" fill="#FFC100"/>
<path d="M106.029 110.986L107.341 111.062C107.341 111.184 107.302 111.244 107.282 111.361C106.751 111.335 106.482 111.32 105.97 111.285L106.029 110.986ZM108.653 111.128L109.965 111.194C109.965 111.315 109.932 111.376 109.913 111.497L108.601 111.432C108.647 111.32 108.653 111.249 108.679 111.128H108.653ZM111.277 111.249L112.589 111.295C112.589 111.421 112.556 111.482 112.537 111.604L111.225 111.553C111.303 111.432 111.31 111.371 111.33 111.249H111.277Z" fill="#FFC100"/>
<path d="M113.941 111.649L115.023 111.679C115.069 111.371 115.089 111.219 115.135 110.905H114.702L114.636 111.371H113.98C113.973 111.462 113.96 111.523 113.941 111.649Z" fill="#FFC100"/>
<path d="M114.977 108.988H115.404C115.351 109.372 115.325 109.564 115.266 109.944H114.839C114.898 109.559 114.925 109.367 114.977 108.988ZM115.246 107.07H115.666L115.535 108.026H115.115L115.246 107.07Z" fill="#FFC100"/>
<path d="M115.502 105.152H115.915C115.869 105.536 115.843 105.729 115.791 106.113H115.377C115.456 105.754 115.456 105.536 115.502 105.152ZM115.751 103.234H116.165C116.112 103.619 116.092 103.811 116.04 104.195H115.627C115.679 103.811 115.705 103.619 115.751 103.224V103.234ZM115.994 101.306H116.401C116.355 101.691 116.329 101.883 116.283 102.268H115.876C115.922 101.883 115.948 101.706 115.994 101.306Z" fill="#FFC100"/>
<path d="M116.112 100.34H116.519C116.519 100.026 116.571 99.8694 116.611 99.5557H115.607C115.607 99.6822 115.607 99.7429 115.568 99.8694H116.171C116.151 100.062 116.112 100.153 116.112 100.34Z" fill="#FFC100"/>
<path d="M110.661 99.5659H111.9C111.9 99.6874 111.868 99.7481 111.854 99.8746H110.615C110.634 99.7481 110.641 99.6823 110.661 99.5659ZM113.134 99.5659H114.373C114.373 99.6924 114.373 99.7531 114.328 99.8746H113.088C113.107 99.7633 113.114 99.6823 113.134 99.5811V99.5659Z" fill="#FFC100"/>
<path d="M103.254 99.3936L104.488 99.434C104.488 99.5555 104.455 99.6162 104.429 99.7326L103.195 99.687L103.254 99.3936ZM105.721 99.4745L106.954 99.5049C106.954 99.6263 106.954 99.687 106.902 99.8085L105.662 99.7731C105.688 99.6516 105.701 99.5909 105.721 99.4745ZM108.187 99.5302H109.427C109.427 99.6516 109.395 99.7123 109.375 99.8338H108.135C108.161 99.7123 108.168 99.6516 108.187 99.5302Z" fill="#FFC100"/>
<path d="M100.86 100.036H101.26L101.359 99.591H101.956L102.021 99.2975L101.024 99.252L100.86 100.036Z" fill="#FFC100"/>
<path d="M100.23 102.764H100.637C100.552 103.128 100.512 103.31 100.427 103.675L100.014 103.649C100.099 103.31 100.145 103.128 100.23 102.764ZM100.65 100.947H101.057C100.972 101.312 100.932 101.494 100.847 101.858H100.44C100.526 101.494 100.565 101.312 100.65 100.947Z" fill="#FFC100"/>
<path d="M98.9184 108.193L99.3382 108.228C99.2463 108.588 99.207 108.77 99.1152 109.129L98.6953 109.094C98.7806 108.734 98.8265 108.557 98.9184 108.193ZM99.3644 106.392L99.7777 106.417C99.6924 106.781 99.6465 106.963 99.5612 107.323L99.1414 107.292C99.2267 106.933 99.2726 106.766 99.3644 106.392ZM99.7974 104.58H100.211C100.125 104.944 100.079 105.127 99.9942 105.486L99.5809 105.461C99.6662 105.122 99.7121 104.944 99.7974 104.58Z" fill="#FFC100"/>
<path d="M82.1641 108.846C82.5839 108.906 82.8201 108.942 83.2137 108.997C83.2596 108.891 83.2793 108.835 83.3186 108.724L82.6626 108.638C82.7217 108.471 82.7545 108.39 82.8135 108.228L82.3937 108.167C82.3149 108.441 82.2625 108.577 82.1641 108.846Z" fill="#FFC100"/>
<path d="M84.6241 108.906L85.9361 109.083C85.9033 109.19 85.8836 109.245 85.8442 109.357L84.5322 109.179L84.6241 108.906ZM87.2481 109.25L88.5601 109.412L88.4748 109.691L87.1628 109.529C87.1693 109.417 87.189 109.362 87.2481 109.25Z" fill="#FFC100"/>
<path d="M89.8719 109.569L91.1839 109.716C91.1511 109.832 91.138 109.888 91.0986 109.999C90.5738 109.944 90.3114 109.913 89.7866 109.848C89.7866 109.736 89.7997 109.681 89.8719 109.569ZM92.4959 109.863L93.8079 109.999L93.7292 110.288L92.4172 110.146C92.4106 110.035 92.4238 109.974 92.4566 109.863H92.4959ZM95.1199 110.131L96.4319 110.257L96.3532 110.546L95.0412 110.419C95.0346 110.308 95.0543 110.247 95.1199 110.131Z" fill="#FFC100"/>
<path d="M97.6392 110.667L98.7084 110.758C98.7806 110.47 98.82 110.323 98.8921 110.03L98.4657 109.994L98.3542 110.434L97.6982 110.379L97.6392 110.667Z" fill="#FFC100"/>
<path d="M98.9184 108.193L99.3382 108.228C99.2464 108.588 99.207 108.77 99.1152 109.129L98.6953 109.094C98.7806 108.734 98.8265 108.557 98.9184 108.193ZM99.3644 106.392L99.7777 106.417C99.6924 106.781 99.6465 106.963 99.5612 107.323L99.1414 107.292C99.2267 106.933 99.2726 106.766 99.3644 106.392Z" fill="#FFC100"/>
<path d="M99.7973 104.58H100.211C100.125 104.945 100.079 105.127 99.9941 105.486L99.5808 105.461C99.6661 105.122 99.712 104.945 99.7973 104.58ZM100.23 102.764H100.637C100.552 103.128 100.512 103.31 100.427 103.675L100.014 103.649C100.099 103.31 100.145 103.128 100.23 102.764ZM100.65 100.947H101.057C100.972 101.312 100.932 101.494 100.847 101.858H100.44C100.525 101.494 100.565 101.312 100.65 100.947Z" fill="#FFC100"/>
<path d="M100.86 100.036H101.26L101.424 99.2975L100.427 99.252L100.361 99.5454H100.958L100.86 100.036Z" fill="#FFC100"/>
<path d="M95.5138 98.9839L96.7405 99.0648C96.7077 99.1812 96.6946 99.2369 96.6683 99.3533L95.4351 99.2723L95.5138 98.9839ZM97.9672 99.1407L99.2005 99.2065C99.1677 99.3229 99.1546 99.3836 99.1283 99.5L97.8951 99.4292C97.9279 99.3128 97.941 99.2571 97.9672 99.1407Z" fill="#FFC100"/>
<path d="M88.16 98.3867L89.3801 98.5031L89.2948 98.7814L88.0681 98.665C88.1075 98.5537 88.1272 98.498 88.16 98.3867ZM90.6068 98.6094L91.8336 98.7106C91.8008 98.8269 91.7811 98.8826 91.7483 98.9939L90.5216 98.8927C90.5281 98.7763 90.574 98.7207 90.6068 98.6094ZM93.0537 98.8067L94.2804 98.8978C94.2804 99.0142 94.2345 99.0698 94.2017 99.1862L92.975 99.0951C93.0078 98.9787 93.0275 98.9231 93.0537 98.8067Z" fill="#FFC100"/>
<path d="M85.7196 98.8573L86.1132 98.8978C86.1723 98.7308 86.1985 98.6498 86.251 98.4828L86.8479 98.5436C86.8807 98.4322 86.9004 98.3766 86.9398 98.2653C86.5462 98.2248 86.3428 98.2096 85.9492 98.1641L85.7196 98.8573Z" fill="#FFC100"/>
<path d="M84.8339 101.413L85.2406 101.458L84.9454 102.308L84.5387 102.258L84.8339 101.413ZM85.4243 99.7075L85.8245 99.7531L85.5293 100.608L85.1291 100.563L85.4243 99.7075Z" fill="#FFC100"/>
<path d="M83.0299 106.488L83.4432 106.544C83.3251 106.883 83.266 107.05 83.1414 107.389L82.7216 107.328C82.8462 106.994 82.9052 106.822 83.0299 106.488ZM83.64 104.798L84.0532 104.854C83.9286 105.193 83.8696 105.36 83.7515 105.699L83.3382 105.643C83.4563 105.304 83.5153 105.137 83.64 104.798ZM84.2435 103.108L84.6502 103.159C84.5321 103.498 84.4665 103.665 84.3484 104.004L83.9417 103.953C84.0598 103.614 84.1188 103.447 84.2435 103.108Z" fill="#FFC100"/>
<path d="M66.3019 106.053L67.3383 106.265C67.3908 106.164 67.4105 106.113 67.463 106.012L66.807 105.886C66.8857 105.734 66.9185 105.658 66.9972 105.511L66.584 105.425L66.3019 106.053Z" fill="#FFC100"/>
<path d="M68.7423 106.26L70.0215 106.513L69.9034 106.766C69.3918 106.665 69.1294 106.62 68.5914 106.513C68.6702 106.417 68.6898 106.367 68.7423 106.26ZM71.3073 106.766L72.6193 107.004L72.5078 107.262L71.1958 107.024C71.2351 106.913 71.2548 106.862 71.3073 106.766Z" fill="#FFC100"/>
<path d="M73.8789 107.227L75.1909 107.449L75.0793 107.712C74.5611 107.626 74.3053 107.581 73.7673 107.485C73.8067 107.383 73.8329 107.333 73.8789 107.227ZM76.4569 107.672L77.7689 107.884L77.6574 108.147L76.3454 107.935C76.3913 107.829 76.411 107.778 76.4569 107.672ZM79.0416 108.087L80.3536 108.289L80.2552 108.557L78.9432 108.355C78.976 108.249 78.9956 108.198 79.0416 108.087Z" fill="#FFC100"/>
<path d="M81.5343 108.754L82.5839 108.906C82.6823 108.638 82.7348 108.501 82.8332 108.228L82.4133 108.167C82.3543 108.329 82.3215 108.41 82.2625 108.577L81.6065 108.481L81.5343 108.754Z" fill="#FFC100"/>
<path d="M83.0299 106.488L83.4431 106.544C83.3251 106.883 83.266 107.05 83.1414 107.389L82.7216 107.328C82.8462 106.994 82.9052 106.822 83.0299 106.488ZM83.6399 104.798L84.0532 104.854C83.9286 105.193 83.8695 105.36 83.7515 105.699L83.3382 105.643C83.4563 105.304 83.5153 105.137 83.6399 104.798Z" fill="#FFC100"/>
<path d="M84.2434 103.108L84.6501 103.158C84.5321 103.497 84.4665 103.664 84.3484 104.009L83.9417 103.953C84.0597 103.614 84.1188 103.447 84.2434 103.108ZM84.8338 101.413L85.2405 101.458L84.9453 102.308L84.5386 102.258L84.8338 101.413ZM85.4242 99.7075L85.8244 99.7531L85.5292 100.608L85.129 100.563L85.4242 99.7075Z" fill="#FFC100"/>
<path d="M85.7196 98.8574L86.1132 98.8979L86.3428 98.2047L85.3588 98.1035C85.3194 98.2148 85.2998 98.2705 85.267 98.3768L85.8574 98.4425C85.7983 98.6095 85.7721 98.6702 85.7196 98.8574Z" fill="#FFC100"/>
<path d="M80.4912 97.5366L81.7048 97.6884L81.6064 97.9566C81.1144 97.9009 80.8717 97.8706 80.3862 97.8048L80.4912 97.5366ZM82.9249 97.8301L84.1385 97.9718L84.0401 98.245L82.82 98.1033C82.8593 97.9971 82.879 97.9414 82.9249 97.8301Z" fill="#FFC100"/>
<path d="M73.2228 96.5195L74.4299 96.7017L74.3183 96.9648L73.1047 96.7776C73.1507 96.6764 73.1769 96.646 73.2228 96.5195ZM75.6369 96.8839L76.8505 97.0559L76.739 97.319L75.5254 97.147C75.5713 97.0407 75.5975 96.985 75.6369 96.8839ZM78.0641 97.2229L79.2711 97.3848L79.1727 97.6479L77.9526 97.486L78.0641 97.2229Z" fill="#FFC100"/>
<path d="M70.743 96.8128L71.1366 96.8786L71.3138 96.4941L71.8976 96.5902C71.9435 96.4839 71.9698 96.4334 72.0157 96.3322L71.0382 96.1753L70.743 96.8128Z" fill="#FFC100"/>
<path d="M69.6409 99.1762L70.0345 99.247C69.8902 99.5608 69.8114 99.7176 69.6671 100.036L69.267 99.9605L69.6409 99.1762ZM70.3756 97.6025L70.7692 97.6683C70.6249 97.9871 70.5527 98.144 70.4019 98.4577L70.0083 98.3919C70.1919 98.0731 70.2313 97.9163 70.3756 97.6025Z" fill="#FFC100"/>
<path d="M67.3778 103.872L67.7911 103.953L67.4106 104.732L66.9973 104.646C67.1548 104.337 67.2269 104.18 67.3778 103.872ZM68.1388 102.313L68.5455 102.389L68.165 103.168L67.7583 103.092C67.9157 102.779 67.9879 102.622 68.1388 102.313ZM68.8932 100.745L69.2933 100.821L68.9194 101.605L68.5192 101.529L68.8932 100.745Z" fill="#FFC100"/>
<path d="M57.223 108.649L61.7757 110.531L63.2123 105.607L57.8331 104.449L57.223 108.649Z" fill="#FFC3BD"/>
<path d="M62.32 84.3908C62.32 84.3908 55.8453 83.9557 54.3431 90.4628C52.8408 96.97 48.1504 104.292 54.3431 108.203L57.9117 109.868C59.5895 108.349 60.7506 106.532 61.2901 104.58L59.2696 103.497L60.8178 99.0041C60.8178 99.0041 64.944 85.9088 62.32 84.3908Z" fill="#FFC100"/>
<path opacity="0.5" d="M62.32 84.3908C62.32 84.3908 55.8453 83.9557 54.3431 90.4628C52.8408 96.97 48.1504 104.292 54.3431 108.203L57.9117 109.868C59.5895 108.349 60.7506 106.532 61.2901 104.58L59.2696 103.497L60.8178 99.0041C60.8178 99.0041 64.944 85.9088 62.32 84.3908Z" fill="white"/>
<path d="M67.568 194.38L64.288 202.178C64.2106 202.382 64.2191 202.601 64.3122 202.802C64.4052 203.002 64.5782 203.175 64.8063 203.296C65.909 203.869 67.0522 204.394 68.2306 204.87C69.7729 205.306 71.3453 205.676 72.9407 205.978C73.2117 206.033 73.4514 206.155 73.6224 206.326C73.7933 206.498 73.8858 206.708 73.8853 206.924C73.8853 207.184 73.7512 207.434 73.5126 207.618C73.2739 207.802 72.9502 207.906 72.6127 207.906H56.4882C56.3063 207.901 56.1276 207.867 55.9635 207.806C55.7994 207.746 55.6534 207.659 55.535 207.553C55.4165 207.446 55.3281 207.322 55.2754 207.187C55.2226 207.053 55.2067 206.911 55.2287 206.772L58.0036 193.368C58.0554 193.121 58.2276 192.899 58.4848 192.746C58.7421 192.594 59.065 192.523 59.3877 192.548L66.4594 193.105C66.65 193.117 66.8346 193.162 66.9995 193.237C67.1644 193.312 67.3054 193.414 67.4119 193.537C67.5184 193.659 67.5878 193.799 67.6148 193.945C67.6419 194.091 67.6259 194.24 67.568 194.38Z" fill="#263238"/>
<path d="M61.1919 119.199L78.9695 119.705C78.9695 119.705 80.2815 155.125 79.0351 165.174C77.9264 174.186 70.4152 189.153 68.9589 193.834C68.887 194.061 68.7085 194.26 68.4577 194.392C68.2069 194.523 67.9016 194.579 67.601 194.547L58.3842 193.611C58.2238 193.596 58.0689 193.556 57.9286 193.494C57.7882 193.432 57.6651 193.349 57.5663 193.25C57.4676 193.152 57.3951 193.039 57.3531 192.918C57.311 192.798 57.3003 192.672 57.3215 192.549C57.9775 188.804 59.7159 180.804 63.9405 167.567C64.6608 165.305 65.0568 162.989 65.1213 160.66C65.2525 155.676 65.305 146.649 64.2947 140C63.4091 134.217 60.221 128.221 61.1919 119.199Z" fill="#FFC100"/>
<path d="M67.568 194.38L64.288 202.178C64.2106 202.382 64.2191 202.601 64.3122 202.802C64.4052 203.002 64.5782 203.175 64.8063 203.296C65.909 203.869 67.0522 204.394 68.2306 204.87C69.7729 205.306 71.3453 205.676 72.9407 205.978C73.2117 206.033 73.4514 206.155 73.6224 206.326C73.7933 206.498 73.8858 206.708 73.8853 206.924C73.8853 207.184 73.7512 207.434 73.5126 207.618C73.2739 207.802 72.9502 207.906 72.6127 207.906H56.4882C56.3063 207.901 56.1276 207.867 55.9635 207.806C55.7994 207.746 55.6534 207.659 55.535 207.553C55.4165 207.446 55.3281 207.322 55.2754 207.187C55.2226 207.053 55.2067 206.911 55.2287 206.772L58.0036 193.368C58.0554 193.121 58.2276 192.899 58.4848 192.746C58.7421 192.594 59.065 192.523 59.3877 192.548L66.4594 193.105C66.65 193.117 66.8346 193.162 66.9995 193.237C67.1644 193.312 67.3054 193.414 67.4119 193.537C67.5184 193.659 67.5878 193.799 67.6148 193.945C67.6419 194.091 67.6259 194.24 67.568 194.38Z" fill="#263238"/>
<path d="M61.1919 119.199L78.9695 119.705C78.9695 119.705 80.2815 155.125 79.0351 165.174C77.9264 174.186 70.4152 189.153 68.9589 193.834C68.887 194.061 68.7085 194.26 68.4577 194.392C68.2069 194.523 67.9016 194.579 67.601 194.547L58.3842 193.611C58.2238 193.596 58.0689 193.556 57.9286 193.494C57.7882 193.432 57.6651 193.349 57.5663 193.25C57.4676 193.152 57.3951 193.039 57.3531 192.918C57.311 192.798 57.3003 192.672 57.3215 192.549C57.9775 188.804 59.7159 180.804 63.9405 167.567C64.6608 165.305 65.0568 162.989 65.1213 160.66C65.2525 155.676 65.305 146.649 64.2947 140C63.4091 134.217 60.221 128.221 61.1919 119.199Z" fill="#FFC100"/>
<path opacity="0.2" d="M61.1919 119.199L78.9695 119.705C78.9695 119.705 80.2815 155.125 79.0351 165.174C77.9264 174.186 70.4152 189.153 68.9589 193.834C68.887 194.061 68.7085 194.26 68.4577 194.392C68.2069 194.523 67.9016 194.579 67.601 194.547L58.3842 193.611C58.2238 193.596 58.0689 193.556 57.9286 193.494C57.7882 193.432 57.6651 193.349 57.5663 193.25C57.4676 193.152 57.3951 193.039 57.3531 192.918C57.311 192.798 57.3003 192.672 57.3215 192.549C57.9775 188.804 59.7159 180.804 63.9405 167.567C64.6608 165.305 65.0568 162.989 65.1213 160.66C65.2525 155.676 65.305 146.649 64.2947 140C63.4091 134.217 60.221 128.221 61.1919 119.199Z" fill="black"/>
<path opacity="0.2" d="M73.8002 127.836C74.1599 138.077 76.1202 148.247 79.6386 158.125C79.8682 152.104 79.3499 136.564 79.2384 130.467L76.9949 127.836H73.8002Z" fill="black"/>
<path d="M97.193 193.748L96.3599 202.289C96.3406 202.468 96.3862 202.647 96.4916 202.807C96.597 202.967 96.7581 203.101 96.9569 203.195C98.2723 203.828 99.6299 204.407 101.024 204.93C102.661 205.357 104.325 205.719 106.01 206.013C106.276 206.07 106.51 206.193 106.676 206.363C106.842 206.533 106.931 206.741 106.928 206.954C106.928 207.212 106.795 207.459 106.559 207.641C106.323 207.823 106.003 207.926 105.669 207.926H89.2685C88.9412 207.926 88.6267 207.828 88.3916 207.652C88.1564 207.476 88.0193 207.237 88.009 206.984L87.517 194.006C87.5045 193.75 87.6225 193.501 87.8458 193.311C88.0691 193.122 88.3797 193.008 88.7109 192.994L95.881 192.715C96.0576 192.709 96.2339 192.732 96.3983 192.782C96.5627 192.832 96.7117 192.908 96.8354 193.006C96.9592 193.103 97.055 193.219 97.1166 193.347C97.1782 193.475 97.2042 193.611 97.193 193.748Z" fill="#263238"/>
<path d="M89.5899 120.281C89.5899 120.281 98.9313 157.427 99.8169 165.148C100.624 172.152 98.6427 188.389 98.3409 193.555C98.329 193.778 98.2054 193.989 97.9961 194.143C97.7868 194.296 97.5083 194.382 97.2192 194.38H87.7465C87.4541 194.381 87.1727 194.294 86.9629 194.137C86.7531 193.98 86.6316 193.766 86.6248 193.54C86.5067 189.679 86.3033 180.384 86.7691 170.952C86.9348 167.305 86.2687 163.664 84.8011 160.195C81.4555 152.149 75.3744 136.985 73.2227 127.957C72.7635 126.025 71.9697 120.15 71.9697 120.15L89.5899 120.281Z" fill="#FFC100"/>
<path opacity="0.2" d="M89.5899 120.281C89.5899 120.281 98.9313 157.427 99.8169 165.148C100.624 172.152 98.6427 188.389 98.3409 193.555C98.329 193.778 98.2054 193.989 97.9961 194.143C97.7868 194.296 97.5083 194.382 97.2192 194.38H87.7465C87.4541 194.381 87.1727 194.294 86.9629 194.137C86.7531 193.98 86.6316 193.766 86.6248 193.54C86.5067 189.679 86.3033 180.384 86.7691 170.952C86.9348 167.305 86.2687 163.664 84.8011 160.195C81.4555 152.149 75.3744 136.985 73.2227 127.957C72.7635 126.025 71.9697 120.15 71.9697 120.15L89.5899 120.281Z" fill="black"/>
<path d="M68.342 83.1155C68.342 83.1155 71.8844 82.8423 71.8451 77.8126C71.8451 77.8126 75.1251 76.664 77.244 78.1567C79.3628 79.6494 75.276 83.1105 77.9393 84.5779C80.6027 86.0453 68.342 83.1155 68.342 83.1155Z" fill="#FFC3BD"/>
<path opacity="0.1" d="M75.2761 80.186C75.8197 80.8442 76.4676 81.4477 77.2048 81.9823C77.395 81.3346 77.6705 80.6566 77.8083 80.0342L75.2761 80.186Z" fill="black"/>
<path d="M108.24 100.497L119.228 99.5555L121.294 97.0204L123.918 95.7959L125.985 96.5802L124.574 102.015L122.324 102.688H119.694L108.24 105.056V100.497Z" fill="#FFC3BD"/>
<path d="M89.872 85.433C89.872 85.433 95.3233 85.1446 100.368 91.8035L105.249 99.3379H109.008C109.008 99.3379 111.074 103.538 109.008 105.997C109.008 105.997 101.687 108.173 89.8523 96.8888L87.412 89.5012L89.872 85.433Z" fill="#FFC100"/>
<path opacity="0.5" d="M89.872 85.433C89.872 85.433 95.3233 85.1446 100.368 91.8035L105.249 99.3379H109.008C109.008 99.3379 111.074 103.538 109.008 105.997C109.008 105.997 101.687 108.173 89.8523 96.8888L87.412 89.5012L89.872 85.433Z" fill="white"/>
<path d="M60.4896 122.042C60.4896 122.042 80.0187 124.572 90.7837 122.042C90.7837 122.042 88.2778 113.946 92.0301 100.031C92.0301 100.031 88.2778 92.6943 92.0301 85.3573C92.0301 85.3573 77.0142 81.8811 61.2375 84.0012C60.2677 88.2777 59.6824 92.6008 59.4859 96.9396C59.2039 103.224 58.9874 107.176 60.4896 122.042Z" fill="#FFC100"/>
<path d="M67.3121 84.3906C67.3121 84.3906 66.5577 81.0561 73.8721 81.638C81.1865 82.2199 82.5051 85.1142 82.5051 85.1142L67.3121 84.3906Z" fill="#FFC100"/>
<path d="M59.7748 114.275C67.0693 114.88 74.401 115.181 81.7377 115.176C84.3617 115.176 87.1169 115.135 89.9705 115.044C89.9705 114.326 89.9705 113.526 89.9705 112.732C79.8258 113.05 69.6644 112.783 59.5714 111.932C59.6567 112.671 59.6961 113.45 59.7748 114.275Z" fill="#263238"/>
<path d="M81.2324 105.724C81.1275 100.158 81.7376 88.1809 85.6998 85.0184C86.0205 84.742 86.4335 84.539 86.8937 84.4314C85.7392 84.2594 84.4206 84.0873 82.9577 83.9254C80.7011 86.1822 79.2251 90.6147 78.5691 97.1168C78.2148 100.659 78.1952 103.928 78.2148 105.633C73.2847 105.455 68.3694 105.085 63.4876 104.525C63.5532 101.646 63.8091 93.337 64.5635 89.2688C64.855 87.301 65.4225 85.3635 66.256 83.4902C65.167 83.5611 64.0649 83.6572 62.976 83.7787C62.3522 85.469 61.8896 87.1923 61.5918 88.9348C60.8374 93.0283 60.575 100.957 60.4963 104.14L59.2761 103.973C59.2761 104.717 59.2761 105.491 59.3155 106.346C67.8369 107.51 76.4752 108.089 85.1291 108.077C86.8347 108.077 88.6059 108.051 90.4099 108.001C90.5083 107.252 90.6264 106.483 90.7641 105.673C87.4382 105.79 84.2435 105.79 81.2324 105.724Z" fill="#263238"/>
<path opacity="0.8" d="M59.7748 114.275C67.0693 114.88 74.401 115.181 81.7377 115.176C84.3617 115.176 87.1169 115.135 89.9705 115.044C89.9705 114.326 89.9705 113.526 89.9705 112.732C79.8258 113.05 69.6644 112.783 59.5714 111.932C59.6567 112.671 59.6961 113.45 59.7748 114.275Z" fill="white"/>
<path opacity="0.8" d="M81.2324 105.724C81.1275 100.158 81.7376 88.1809 85.6998 85.0184C86.0205 84.742 86.4335 84.539 86.8937 84.4314C85.7392 84.2594 84.4206 84.0873 82.9577 83.9254C80.7011 86.1822 79.2251 90.6147 78.5691 97.1168C78.2148 100.659 78.1952 103.928 78.2148 105.633C73.2847 105.455 68.3694 105.085 63.4876 104.525C63.5532 101.646 63.8091 93.337 64.5635 89.2688C64.855 87.301 65.4225 85.3635 66.256 83.4902C65.167 83.5611 64.0649 83.6572 62.976 83.7787C62.3522 85.469 61.8896 87.1923 61.5918 88.9348C60.8374 93.0283 60.575 100.957 60.4963 104.14L59.2761 103.973C59.2761 104.717 59.2761 105.491 59.3155 106.346C67.8369 107.51 76.4752 108.089 85.1291 108.077C86.8347 108.077 88.6059 108.051 90.4099 108.001C90.5083 107.252 90.6264 106.483 90.7641 105.673C87.4382 105.79 84.2435 105.79 81.2324 105.724Z" fill="white"/>
<path d="M65.2523 96.3477L76.5093 97.132V102.637L65.2523 101.767V96.3477Z" fill="white"/>
<path d="M84.9651 71.9986C85.0044 72.3174 84.8207 72.5957 84.5452 72.6109C84.2697 72.6261 84.0073 72.3781 83.981 72.0644C83.9548 71.7507 84.1254 71.4724 84.4009 71.4572C84.6764 71.4421 84.9257 71.6799 84.9651 71.9986Z" fill="#263238"/>
<path d="M83.7974 72.3936L85.6539 74.9691C85.2628 75.1358 84.8264 75.2295 84.3798 75.2427C83.9333 75.2559 83.4889 75.1882 83.0824 75.045L83.7974 72.3936Z" fill="#BA4D3C"/>
<path d="M68.7817 70.84C69.031 75.1005 69.0179 76.912 71.76 79.1283C75.9715 81.4053 82.6234 81.299 84.0272 77.0638C85.2933 73.2536 84.6832 66.9438 79.304 65.1576C78.1231 64.7699 76.8335 64.6208 75.5571 64.7243C74.2808 64.8279 73.0596 65.1807 72.0091 65.7494C70.9586 66.3181 70.1134 67.084 69.5533 67.9747C68.9932 68.8654 68.7367 69.8516 68.808 70.84H68.7817Z" fill="#FFC3BD"/>
<path d="M82.7872 70.5063C82.8203 70.5174 82.856 70.5232 82.8921 70.5232C82.9282 70.5232 82.964 70.5174 82.9971 70.5063C83.2385 70.4104 83.5062 70.3604 83.7777 70.3604C84.0493 70.3604 84.3169 70.4104 84.5584 70.5063C84.6064 70.5292 84.6642 70.5368 84.7193 70.5273C84.7745 70.5179 84.8227 70.4922 84.8536 70.4557C84.8837 70.4178 84.8937 70.3725 84.8815 70.3291C84.8692 70.2857 84.8357 70.2477 84.788 70.2229C84.4888 70.0939 84.1538 70.0223 83.8112 70.0144C83.4686 70.0065 83.1286 70.0624 82.82 70.1774C82.7935 70.1862 82.7695 70.1989 82.7495 70.2149C82.7296 70.2309 82.7139 70.2499 82.7035 70.2706C82.6931 70.2913 82.6882 70.3135 82.6891 70.3357C82.6899 70.3579 82.6965 70.3798 82.7084 70.4C82.7213 70.4404 82.7486 70.4772 82.7872 70.5063Z" fill="#263238"/>
<path d="M80.6879 73.6231C80.6879 73.6231 81.6259 70.4859 80.6879 69.6156C79.7498 68.7452 80.2811 68.5479 81.2914 67.7839C82.3016 67.0198 83.1282 65.4562 81.0618 64.6669C78.9954 63.8775 74.9282 63.3918 71.6088 64.8845C68.2895 66.3772 68.1058 68.3404 68.0468 69.7977C67.9877 71.255 68.7028 76.234 69.3588 77.3877C69.8941 78.1492 70.7371 78.7551 71.7597 79.1132C71.7597 79.1132 72.5141 78.4706 74.6133 79.1132C74.6133 79.1132 79.8088 75.5054 80.6879 73.6231Z" fill="#263238"/>
<path d="M80.2419 72.0293C80.9257 72.7238 81.2253 73.5988 81.075 74.4631C80.8586 75.6067 79.3826 75.7231 78.2936 75.0248C77.303 74.3923 76.2403 73.0362 76.9816 72.0698C77.1499 71.8543 77.3864 71.6753 77.6691 71.5498C77.9517 71.4243 78.2711 71.3563 78.5972 71.3522C78.9233 71.3482 79.2454 71.4082 79.5331 71.5267C79.8208 71.6451 80.0648 71.8181 80.2419 72.0293Z" fill="#FFC3BD"/>
<path d="M66.9843 69.1753C66.9862 70.4417 67.3349 71.6936 68.0076 72.8488C72.0814 72.4542 75.263 71.0019 76.0699 69.1753H66.9843Z" fill="#263238"/>
<path opacity="0.6" d="M66.9843 69.1753C66.9862 70.4417 67.3349 71.6936 68.0076 72.8488C72.0814 72.4542 75.263 71.0019 76.0699 69.1753H66.9843Z" fill="white"/>
<path d="M89.9834 68.5429H85.9753C85.6866 64.6315 82.7543 61.5601 77.5785 61.5601C72.4026 61.5601 66.8594 64.6315 66.3084 68.5429H65.3506C65.1466 68.557 64.9569 68.6294 64.8187 68.746C64.6805 68.8626 64.6039 69.0149 64.6039 69.1728C64.6039 69.3308 64.6805 69.483 64.8187 69.5996C64.9569 69.7162 65.1466 69.7887 65.3506 69.8028H89.9834C90.1874 69.7887 90.3771 69.7162 90.5153 69.5996C90.6535 69.483 90.7301 69.3308 90.7301 69.1728C90.7301 69.0149 90.6535 68.8626 90.5153 68.746C90.3771 68.6294 90.1874 68.557 89.9834 68.5429Z" fill="#FFC100"/>
<path opacity="0.1" d="M66.3149 68.543H85.9949C85.9411 67.7674 85.7671 66.9996 85.4767 66.2559H67.2465C66.7517 66.9661 66.4356 67.7421 66.3149 68.543Z" fill="black"/>
</svg>
